<svg width="966" height="420" viewBox="0 0 966 420" fill="none" xmlns="http://www.w3.org/2000/svg">
<g filter="url(#filter0_d_1694_359)">
<mask id="path-1-outside-1_1694_359" maskUnits="userSpaceOnUse" x="70" y="40" width="809" height="336" fill="black">
<rect fill="white" x="70" y="40" width="809" height="336"/>
<path d="M163.078 315.047C159.172 315.047 157.219 312.166 157.219 306.404C157.219 300.643 157.902 292.879 159.27 283.113C160.637 273.445 161.32 266.561 161.32 262.459C161.32 258.357 161.027 255.232 160.441 253.084L100.969 80.0859C98.8203 74.1289 95.5977 69.6855 91.3008 66.7559L93.3516 63.8262C98.0391 67.0488 103.264 68.6602 109.025 68.6602H162.785C168.84 68.6602 173.332 66.6094 176.262 62.5078L180.07 65.4375C178.02 68.0742 176.994 71.541 176.994 75.8379C176.994 80.1348 178.508 86.9707 181.535 96.3457C184.562 105.623 187.883 114.559 191.496 123.152C201.066 146.199 205.852 164.51 205.852 178.084H207.756C207.756 165.096 213.518 146.736 225.041 123.006C236.662 99.1777 242.473 82.5273 242.473 73.0547C242.473 70.418 241.594 67.8301 239.836 65.291L243.645 62.3613C246.574 66.5605 251.018 68.6602 256.975 68.6602H298.43C304.289 68.6602 308.684 66.5605 311.613 62.3613L315.568 65.291C313.713 67.7324 312.785 70.9062 312.785 74.8125C312.785 78.7188 314.543 85.4082 318.059 94.8809C321.672 104.256 325.627 113.387 329.924 122.273C341.447 146.102 347.307 164.705 347.502 178.084H349.406C349.406 164.119 354.191 145.857 363.762 123.299C373.332 100.643 378.117 84.1875 378.117 73.9336C378.117 70.7109 377.189 67.8789 375.334 65.4375L379.143 62.5078C382.072 66.6094 386.564 68.6602 392.619 68.6602H446.379C452.141 68.6602 457.365 67.0488 462.053 63.8262L463.957 66.7559C459.66 69.6855 456.486 74.1289 454.436 80.0859C453.752 82.1367 450.773 90.4863 445.5 105.135C440.227 119.783 434.953 134.627 429.68 149.666C424.406 164.607 418.938 180.379 413.273 196.98C400.285 234.578 393.791 255.135 393.791 258.65C393.791 262.166 394.719 265.145 396.574 267.586L392.619 270.516C389.689 266.316 385.246 264.217 379.289 264.217L324.943 264.07C318.889 264.07 314.445 266.121 311.613 270.223L307.658 267.586C309.416 265.242 310.295 262.02 310.295 257.918C310.295 253.719 308.635 247.127 305.314 238.143C301.994 229.061 298.332 220.369 294.328 212.068C283.781 189.803 278.508 172.322 278.508 159.627H276.75C276.75 172.518 271.428 190.096 260.783 212.361C250.139 234.529 244.816 250.252 244.816 259.529C244.816 262.654 245.744 265.34 247.6 267.586L243.645 270.223C240.812 266.121 236.369 264.07 230.314 264.07L176.115 264.217C170.354 264.217 167.473 265.926 167.473 269.344L169.963 305.232C169.963 307.674 169.377 309.92 168.205 311.971C167.033 314.021 165.324 315.047 163.078 315.047ZM562.102 345.955L563.713 306.99C563.713 294.393 563.225 286.434 562.248 283.113C561.369 279.793 560.441 276.863 559.465 274.324C558.488 271.785 557.219 269.734 555.656 268.172C554.094 266.609 552.238 265.145 550.09 263.777C545.988 261.043 539.543 259.676 530.754 259.676C521.965 259.676 514.543 263.24 508.488 270.369C502.531 277.498 499.553 286.043 499.553 296.004C499.553 299.715 500.285 305.232 501.75 312.557C503.215 319.979 503.947 325.545 503.947 329.256C503.947 336.287 501.457 339.803 496.477 339.803C491.496 339.803 489.006 336.385 489.006 329.549C489.006 325.74 489.738 320.027 491.203 312.41C492.766 304.793 493.547 299.031 493.547 295.125L494.572 255.867V83.748C494.572 77.6934 492.668 72.8105 488.859 69.0996L491.789 66.0234C495.891 69.9297 500.773 71.8828 506.438 71.8828H559.465C565.324 71.8828 570.207 69.9297 574.113 66.0234L577.043 69.0996C573.234 72.9082 571.33 77.791 571.33 83.748V255.135C571.33 260.213 570.793 268.953 569.719 281.355C568.645 293.855 568.303 303.475 568.693 310.213H568.547C572.16 326.424 573.967 338.777 573.967 347.273C573.967 355.77 572.355 360.018 569.133 360.018C564.445 360.018 562.102 355.33 562.102 345.955ZM623.918 284.871L623.625 255.135V83.1621C623.625 77.2051 621.77 72.3711 618.059 68.6602L620.988 65.7305C624.699 69.4414 629.533 71.2969 635.49 71.2969H761.906C782.121 71.2969 795.793 71.8828 802.922 73.0547C810.148 74.2266 816.447 75.5449 821.818 77.0098C827.189 78.377 831.682 80.0371 835.295 81.9902C838.908 83.9434 842.619 86.4336 846.428 89.4609C850.236 92.4883 853.264 95.9062 855.51 99.7148C860.686 108.504 863.273 118.367 863.273 129.305C863.273 140.145 862.053 149.422 859.611 157.137C857.268 164.754 853.459 171.59 848.186 177.645C837.248 190.34 818.645 196.688 792.375 196.688H711.662C705.607 196.688 700.725 194.832 697.014 191.121L693.938 193.904C697.844 197.811 699.797 202.693 699.797 208.553V255.135C699.797 262.654 699.699 271.883 699.504 282.82L692.912 283.406C691.643 272.469 689.982 267 687.932 267H635.49C634.318 267 633.342 269.344 632.561 274.031C631.877 278.816 631.535 283.357 631.535 287.654C631.535 292.049 632.463 299.471 634.318 309.92C636.174 320.369 637.102 327.693 637.102 331.893C637.102 340.877 633.83 345.369 627.287 345.369C620.744 345.369 617.473 340.779 617.473 331.6C617.473 327.205 618.547 319.441 620.695 308.309C622.844 297.176 623.918 289.363 623.918 284.871ZM699.797 132.088V140.73C699.797 146.492 697.844 151.326 693.938 155.232L697.014 158.309C700.822 154.5 705.705 152.596 711.662 152.596H759.123C768.986 152.596 774.895 152.059 776.848 150.984C778.801 149.812 780.461 148.641 781.828 147.469C784.172 145.32 785.344 142.244 785.344 138.24C785.344 134.236 784.904 131.307 784.025 129.451C783.244 127.498 782.072 125.984 780.51 124.91C778.947 123.836 777.385 122.957 775.822 122.273C774.26 121.59 772.355 121.102 770.109 120.809C766.984 120.418 763.518 120.223 759.709 120.223H711.662C705.607 120.223 700.725 118.367 697.014 114.656L693.938 117.439C697.844 121.346 699.797 126.229 699.797 132.088ZM664.641 276.961L668.449 311.678C668.449 317.635 666.252 320.613 661.857 320.613C657.561 320.613 655.412 317.586 655.412 311.531C655.412 308.016 656.291 301.863 658.049 293.074C659.904 284.383 660.832 278.67 660.832 275.936C660.832 273.299 660.783 269.881 660.686 265.682C660.686 261.482 660.686 257.967 660.686 255.135L667.277 262.898C666.594 262.898 665.959 264.461 665.373 267.586C664.885 270.809 664.641 273.934 664.641 276.961Z"/>
</mask>
<path d="M163.078 315.047C159.172 315.047 157.219 312.166 157.219 306.404C157.219 300.643 157.902 292.879 159.27 283.113C160.637 273.445 161.32 266.561 161.32 262.459C161.32 258.357 161.027 255.232 160.441 253.084L100.969 80.0859C98.8203 74.1289 95.5977 69.6855 91.3008 66.7559L93.3516 63.8262C98.0391 67.0488 103.264 68.6602 109.025 68.6602H162.785C168.84 68.6602 173.332 66.6094 176.262 62.5078L180.07 65.4375C178.02 68.0742 176.994 71.541 176.994 75.8379C176.994 80.1348 178.508 86.9707 181.535 96.3457C184.562 105.623 187.883 114.559 191.496 123.152C201.066 146.199 205.852 164.51 205.852 178.084H207.756C207.756 165.096 213.518 146.736 225.041 123.006C236.662 99.1777 242.473 82.5273 242.473 73.0547C242.473 70.418 241.594 67.8301 239.836 65.291L243.645 62.3613C246.574 66.5605 251.018 68.6602 256.975 68.6602H298.43C304.289 68.6602 308.684 66.5605 311.613 62.3613L315.568 65.291C313.713 67.7324 312.785 70.9062 312.785 74.8125C312.785 78.7188 314.543 85.4082 318.059 94.8809C321.672 104.256 325.627 113.387 329.924 122.273C341.447 146.102 347.307 164.705 347.502 178.084H349.406C349.406 164.119 354.191 145.857 363.762 123.299C373.332 100.643 378.117 84.1875 378.117 73.9336C378.117 70.7109 377.189 67.8789 375.334 65.4375L379.143 62.5078C382.072 66.6094 386.564 68.6602 392.619 68.6602H446.379C452.141 68.6602 457.365 67.0488 462.053 63.8262L463.957 66.7559C459.66 69.6855 456.486 74.1289 454.436 80.0859C453.752 82.1367 450.773 90.4863 445.5 105.135C440.227 119.783 434.953 134.627 429.68 149.666C424.406 164.607 418.938 180.379 413.273 196.98C400.285 234.578 393.791 255.135 393.791 258.65C393.791 262.166 394.719 265.145 396.574 267.586L392.619 270.516C389.689 266.316 385.246 264.217 379.289 264.217L324.943 264.07C318.889 264.07 314.445 266.121 311.613 270.223L307.658 267.586C309.416 265.242 310.295 262.02 310.295 257.918C310.295 253.719 308.635 247.127 305.314 238.143C301.994 229.061 298.332 220.369 294.328 212.068C283.781 189.803 278.508 172.322 278.508 159.627H276.75C276.75 172.518 271.428 190.096 260.783 212.361C250.139 234.529 244.816 250.252 244.816 259.529C244.816 262.654 245.744 265.34 247.6 267.586L243.645 270.223C240.812 266.121 236.369 264.07 230.314 264.07L176.115 264.217C170.354 264.217 167.473 265.926 167.473 269.344L169.963 305.232C169.963 307.674 169.377 309.92 168.205 311.971C167.033 314.021 165.324 315.047 163.078 315.047ZM562.102 345.955L563.713 306.99C563.713 294.393 563.225 286.434 562.248 283.113C561.369 279.793 560.441 276.863 559.465 274.324C558.488 271.785 557.219 269.734 555.656 268.172C554.094 266.609 552.238 265.145 550.09 263.777C545.988 261.043 539.543 259.676 530.754 259.676C521.965 259.676 514.543 263.24 508.488 270.369C502.531 277.498 499.553 286.043 499.553 296.004C499.553 299.715 500.285 305.232 501.75 312.557C503.215 319.979 503.947 325.545 503.947 329.256C503.947 336.287 501.457 339.803 496.477 339.803C491.496 339.803 489.006 336.385 489.006 329.549C489.006 325.74 489.738 320.027 491.203 312.41C492.766 304.793 493.547 299.031 493.547 295.125L494.572 255.867V83.748C494.572 77.6934 492.668 72.8105 488.859 69.0996L491.789 66.0234C495.891 69.9297 500.773 71.8828 506.438 71.8828H559.465C565.324 71.8828 570.207 69.9297 574.113 66.0234L577.043 69.0996C573.234 72.9082 571.33 77.791 571.33 83.748V255.135C571.33 260.213 570.793 268.953 569.719 281.355C568.645 293.855 568.303 303.475 568.693 310.213H568.547C572.16 326.424 573.967 338.777 573.967 347.273C573.967 355.77 572.355 360.018 569.133 360.018C564.445 360.018 562.102 355.33 562.102 345.955ZM623.918 284.871L623.625 255.135V83.1621C623.625 77.2051 621.77 72.3711 618.059 68.6602L620.988 65.7305C624.699 69.4414 629.533 71.2969 635.49 71.2969H761.906C782.121 71.2969 795.793 71.8828 802.922 73.0547C810.148 74.2266 816.447 75.5449 821.818 77.0098C827.189 78.377 831.682 80.0371 835.295 81.9902C838.908 83.9434 842.619 86.4336 846.428 89.4609C850.236 92.4883 853.264 95.9062 855.51 99.7148C860.686 108.504 863.273 118.367 863.273 129.305C863.273 140.145 862.053 149.422 859.611 157.137C857.268 164.754 853.459 171.59 848.186 177.645C837.248 190.34 818.645 196.688 792.375 196.688H711.662C705.607 196.688 700.725 194.832 697.014 191.121L693.938 193.904C697.844 197.811 699.797 202.693 699.797 208.553V255.135C699.797 262.654 699.699 271.883 699.504 282.82L692.912 283.406C691.643 272.469 689.982 267 687.932 267H635.49C634.318 267 633.342 269.344 632.561 274.031C631.877 278.816 631.535 283.357 631.535 287.654C631.535 292.049 632.463 299.471 634.318 309.92C636.174 320.369 637.102 327.693 637.102 331.893C637.102 340.877 633.83 345.369 627.287 345.369C620.744 345.369 617.473 340.779 617.473 331.6C617.473 327.205 618.547 319.441 620.695 308.309C622.844 297.176 623.918 289.363 623.918 284.871ZM699.797 132.088V140.73C699.797 146.492 697.844 151.326 693.938 155.232L697.014 158.309C700.822 154.5 705.705 152.596 711.662 152.596H759.123C768.986 152.596 774.895 152.059 776.848 150.984C778.801 149.812 780.461 148.641 781.828 147.469C784.172 145.32 785.344 142.244 785.344 138.24C785.344 134.236 784.904 131.307 784.025 129.451C783.244 127.498 782.072 125.984 780.51 124.91C778.947 123.836 777.385 122.957 775.822 122.273C774.26 121.59 772.355 121.102 770.109 120.809C766.984 120.418 763.518 120.223 759.709 120.223H711.662C705.607 120.223 700.725 118.367 697.014 114.656L693.938 117.439C697.844 121.346 699.797 126.229 699.797 132.088ZM664.641 276.961L668.449 311.678C668.449 317.635 666.252 320.613 661.857 320.613C657.561 320.613 655.412 317.586 655.412 311.531C655.412 308.016 656.291 301.863 658.049 293.074C659.904 284.383 660.832 278.67 660.832 275.936C660.832 273.299 660.783 269.881 660.686 265.682C660.686 261.482 660.686 257.967 660.686 255.135L667.277 262.898C666.594 262.898 665.959 264.461 665.373 267.586C664.885 270.809 664.641 273.934 664.641 276.961Z" fill="white"/>
<path d="M159.27 283.113L144.417 281.013L144.416 281.023L144.414 281.034L159.27 283.113ZM160.441 253.084L174.913 249.137L174.785 248.668L174.627 248.207L160.441 253.084ZM100.969 80.0859L115.154 75.2094L115.117 75.1029L115.079 74.997L100.969 80.0859ZM91.3008 66.7559L79.0123 58.1539L70.3038 70.5946L82.8507 79.1493L91.3008 66.7559ZM93.3516 63.8262L101.849 51.4655L89.5927 43.039L81.0631 55.2242L93.3516 63.8262ZM176.262 62.5078L185.407 50.6185L173.089 41.1427L164.056 53.7892L176.262 62.5078ZM180.07 65.4375L191.911 74.6466L201.169 62.7428L189.216 53.5481L180.07 65.4375ZM181.535 96.3457L167.261 100.955L167.268 100.977L167.275 100.999L181.535 96.3457ZM191.496 123.152L205.349 117.4L205.336 117.369L205.324 117.339L191.496 123.152ZM205.852 178.084H190.852V193.084H205.852V178.084ZM207.756 178.084V193.084H222.756V178.084H207.756ZM225.041 123.006L211.559 116.431L211.553 116.442L211.548 116.454L225.041 123.006ZM239.836 65.291L230.69 53.4017L219.383 62.0998L227.503 73.8292L239.836 65.291ZM243.645 62.3613L255.946 53.7786L246.955 40.8905L234.499 50.472L243.645 62.3613ZM311.613 62.3613L320.542 50.308L308.141 41.1225L299.311 53.7786L311.613 62.3613ZM315.568 65.291L327.511 74.3673L336.7 62.2768L324.497 53.2377L315.568 65.291ZM318.059 94.8809L303.996 100.1L304.028 100.188L304.062 100.275L318.059 94.8809ZM329.924 122.273L316.42 128.803L316.42 128.804L329.924 122.273ZM347.502 178.084L332.504 178.303L332.719 193.084H347.502V178.084ZM349.406 178.084V193.084H364.406V178.084H349.406ZM363.762 123.299L377.57 129.157L377.575 129.146L377.58 129.136L363.762 123.299ZM375.334 65.4375L366.188 53.5481L354.368 62.6407L363.392 74.5137L375.334 65.4375ZM379.143 62.5078L391.349 53.7892L382.315 41.1427L369.997 50.6185L379.143 62.5078ZM462.053 63.8262L474.629 55.6513L466.24 42.7445L453.555 51.4655L462.053 63.8262ZM463.957 66.7559L472.407 79.1493L484.53 70.8835L476.534 58.581L463.957 66.7559ZM454.436 80.0859L440.252 75.2032L440.229 75.2728L440.205 75.3425L454.436 80.0859ZM429.68 149.666L443.825 154.658L443.83 154.644L443.835 154.629L429.68 149.666ZM413.273 196.98L427.451 201.878L427.461 201.851L427.47 201.824L413.273 196.98ZM396.574 267.586L405.503 279.639L417.705 270.6L408.517 258.51L396.574 267.586ZM392.619 270.516L380.317 279.098L389.147 291.754L401.548 282.569L392.619 270.516ZM379.289 264.217L379.249 279.217L379.269 279.217H379.289V264.217ZM324.943 264.07L324.984 249.07L324.964 249.07H324.943V264.07ZM311.613 270.223L303.293 282.703L315.572 290.889L323.957 278.746L311.613 270.223ZM307.658 267.586L295.658 258.586L286.144 271.271L299.338 280.067L307.658 267.586ZM305.314 238.143L291.226 243.293L291.235 243.318L291.245 243.342L305.314 238.143ZM294.328 212.068L280.772 218.49L280.795 218.537L280.818 218.585L294.328 212.068ZM278.508 159.627H293.508V144.627H278.508V159.627ZM276.75 159.627V144.627H261.75V159.627H276.75ZM260.783 212.361L274.305 218.854L274.311 218.843L274.316 218.831L260.783 212.361ZM247.6 267.586L255.92 280.067L269.75 270.847L259.164 258.033L247.6 267.586ZM243.645 270.223L231.301 278.746L239.686 290.889L251.965 282.703L243.645 270.223ZM230.314 264.07V249.07H230.294L230.274 249.07L230.314 264.07ZM176.115 264.217V279.217H176.136L176.156 279.217L176.115 264.217ZM167.473 269.344H152.473V269.864L152.509 270.382L167.473 269.344ZM169.963 305.232H184.963V304.713L184.927 304.194L169.963 305.232ZM163.078 300.047C163.95 300.047 165.44 300.213 167.133 301.046C168.893 301.911 170.226 303.181 171.099 304.469C172.585 306.66 172.219 308.06 172.219 306.404H142.219C142.219 310.511 142.829 316.232 146.268 321.304C150.413 327.417 156.862 330.047 163.078 330.047V300.047ZM172.219 306.404C172.219 301.657 172.796 294.68 174.125 285.193L144.414 281.034C143.008 291.078 142.219 299.628 142.219 306.404H172.219ZM174.122 285.214C175.49 275.536 176.32 267.722 176.32 262.459H146.32C146.32 265.4 145.783 271.354 144.417 281.013L174.122 285.214ZM176.32 262.459C176.32 257.942 176.029 253.229 174.913 249.137L145.97 257.031C145.964 257.01 146.07 257.418 146.166 258.439C146.258 259.42 146.32 260.743 146.32 262.459H176.32ZM174.627 248.207L115.154 75.2094L86.7836 84.9625L146.256 257.961L174.627 248.207ZM115.079 74.997C112.097 66.7291 107.181 59.4283 99.7508 54.3624L82.8507 79.1493C84.0145 79.9428 85.5434 81.5287 86.8584 85.1749L115.079 74.997ZM103.589 75.3578L105.64 72.4281L81.0631 55.2242L79.0123 58.1539L103.589 75.3578ZM84.8536 76.1868C92.0758 81.152 100.271 83.6602 109.025 83.6602V53.6602C106.256 53.6602 104.002 52.9456 101.849 51.4655L84.8536 76.1868ZM109.025 83.6602H162.785V53.6602H109.025V83.6602ZM162.785 83.6602C172.579 83.6602 182.136 80.0907 188.468 71.2264L164.056 53.7892C164.041 53.81 164.086 53.7449 164.199 53.6513C164.313 53.5565 164.417 53.4993 164.466 53.4768C164.566 53.4313 164.138 53.6602 162.785 53.6602V83.6602ZM167.116 74.3972L170.925 77.3269L189.216 53.5481L185.407 50.6185L167.116 74.3972ZM168.23 56.2284C163.609 62.1698 161.994 69.17 161.994 75.8379H191.994C191.994 74.8669 192.111 74.3905 192.147 74.2696C192.173 74.1834 192.126 74.3691 191.911 74.6466L168.23 56.2284ZM161.994 75.8379C161.994 82.7039 164.212 91.5128 167.261 100.955L195.809 91.7363C192.804 82.4286 191.994 77.5656 191.994 75.8379H161.994ZM167.275 100.999C170.425 110.651 173.888 119.974 177.669 128.966L205.324 117.339C201.878 109.143 198.7 100.595 195.795 91.6924L167.275 100.999ZM177.643 128.905C186.984 151.399 190.852 167.506 190.852 178.084H220.852C220.852 161.513 215.149 140.999 205.349 117.4L177.643 128.905ZM205.852 193.084H207.756V163.084H205.852V193.084ZM222.756 178.084C222.756 168.694 227.185 152.931 238.534 129.558L211.548 116.454C199.851 140.542 192.756 161.497 192.756 178.084H222.756ZM238.523 129.581C244.478 117.372 249.107 106.674 252.277 97.5893C255.345 88.7983 257.473 80.3521 257.473 73.0547H227.473C227.473 75.23 226.695 79.8453 223.952 87.7047C221.312 95.2706 217.226 104.812 211.559 116.431L238.523 129.581ZM257.473 73.0547C257.473 66.8713 255.358 61.3595 252.169 56.7529L227.503 73.8292C227.69 74.0995 227.673 74.1433 227.61 73.96C227.58 73.8696 227.543 73.7393 227.516 73.5747C227.488 73.4094 227.473 73.2332 227.473 73.0547H257.473ZM248.982 77.1804L252.79 74.2507L234.499 50.472L230.69 53.4017L248.982 77.1804ZM231.343 70.9441C237.567 79.8653 247.036 83.6602 256.975 83.6602V53.6602C255.75 53.6602 255.421 53.447 255.583 53.5233C255.658 53.5587 255.766 53.6241 255.869 53.7122C255.969 53.7981 255.99 53.8412 255.946 53.7786L231.343 70.9441ZM256.975 83.6602H298.43V53.6602H256.975V83.6602ZM298.43 83.6602C308.374 83.6602 317.742 79.7918 323.915 70.9441L299.311 53.7786C299.256 53.8581 299.267 53.8252 299.361 53.7443C299.458 53.6606 299.567 53.5923 299.654 53.5509C299.844 53.4598 299.57 53.6602 298.43 53.6602V83.6602ZM302.685 74.4147L306.64 77.3444L324.497 53.2377L320.542 50.308L302.685 74.4147ZM303.626 56.2148C299.3 61.9063 297.785 68.5351 297.785 74.8125H327.785C327.785 74.0333 327.879 73.7096 327.878 73.7109C327.877 73.7154 327.854 73.7927 327.79 73.9208C327.726 74.0508 327.634 74.2055 327.511 74.3673L303.626 56.2148ZM297.785 74.8125C297.785 81.7541 300.544 90.7989 303.996 100.1L332.121 89.6617C330.464 85.1974 329.322 81.6539 328.611 78.9471C328.258 77.6025 328.039 76.569 327.912 75.8091C327.781 75.0183 327.785 74.7263 327.785 74.8125H297.785ZM304.062 100.275C307.821 110.028 311.94 119.538 316.42 128.803L343.428 115.744C339.314 107.235 335.523 98.4833 332.055 89.4864L304.062 100.275ZM316.42 128.804C327.744 152.22 332.358 168.354 332.504 178.303L362.5 177.865C362.255 161.056 355.151 139.984 343.428 115.743L316.42 128.804ZM347.502 193.084H349.406V163.084H347.502V193.084ZM364.406 178.084C364.406 167.112 368.282 151.051 377.57 129.157L349.953 117.441C340.101 140.664 334.406 161.126 334.406 178.084H364.406ZM377.58 129.136C387.135 106.514 393.117 87.5394 393.117 73.9336H363.117C363.117 80.8356 359.529 94.7707 349.944 117.462L377.58 129.136ZM393.117 73.9336C393.117 67.6114 391.221 61.5515 387.276 56.3613L363.392 74.5137C363.372 74.4885 363.332 74.4311 363.286 74.3432C363.239 74.2547 363.198 74.1583 363.167 74.0622C363.098 73.8531 363.117 73.7795 363.117 73.9336H393.117ZM384.48 77.3269L388.288 74.3972L369.997 50.6185L366.188 53.5481L384.48 77.3269ZM366.937 71.2264C373.268 80.0907 382.825 83.6602 392.619 83.6602V53.6602C391.266 53.6602 390.839 53.4313 390.938 53.4768C390.988 53.4993 391.091 53.5565 391.206 53.6513C391.319 53.7449 391.363 53.81 391.349 53.7892L366.937 71.2264ZM392.619 83.6602H446.379V53.6602H392.619V83.6602ZM446.379 83.6602C455.133 83.6602 463.328 81.152 470.551 76.1868L453.555 51.4655C451.402 52.9456 449.148 53.6602 446.379 53.6602V83.6602ZM449.476 72.001L451.38 74.9307L476.534 58.581L474.629 55.6513L449.476 72.001ZM455.507 54.3624C448.014 59.4712 443.127 66.8524 440.252 75.2032L468.619 84.9686C469.845 81.4054 471.306 79.8999 472.407 79.1493L455.507 54.3624ZM440.205 75.3425C439.595 77.1742 436.704 85.2841 431.387 100.054L459.613 110.216C464.843 95.6885 467.909 87.0993 468.666 84.8294L440.205 75.3425ZM431.387 100.054C426.099 114.742 420.812 129.625 415.525 144.703L443.835 154.629C449.095 139.629 454.354 124.824 459.613 110.216L431.387 100.054ZM415.535 144.674C410.242 159.67 404.756 175.491 399.077 192.137L427.47 201.824C433.119 185.267 438.57 169.545 443.825 154.658L415.535 144.674ZM399.096 192.083C392.588 210.921 387.666 225.608 384.358 236.078C382.71 241.297 381.419 245.602 380.526 248.912C380.082 250.557 379.697 252.102 379.412 253.467C379.194 254.511 378.791 256.534 378.791 258.65H408.791C408.791 259.888 408.591 260.499 408.779 259.599C408.9 259.021 409.123 258.089 409.491 256.725C410.222 254.017 411.367 250.174 412.965 245.115C416.152 235.028 420.971 220.637 427.451 201.878L399.096 192.083ZM378.791 258.65C378.791 264.943 380.509 271.238 384.632 276.662L408.517 258.51C408.58 258.594 408.644 258.693 408.7 258.802C408.756 258.91 408.79 259.001 408.808 259.06C408.847 259.185 408.791 259.085 408.791 258.65H378.791ZM387.646 255.533L383.691 258.462L401.548 282.569L405.503 279.639L387.646 255.533ZM404.921 261.933C398.697 253.012 389.227 249.217 379.289 249.217V279.217C380.514 279.217 380.842 279.43 380.681 279.354C380.606 279.318 380.498 279.253 380.395 279.165C380.294 279.079 380.274 279.036 380.317 279.098L404.921 261.933ZM379.329 249.217L324.984 249.07L324.903 279.07L379.249 279.217L379.329 249.217ZM324.943 249.07C315.163 249.07 305.523 252.644 299.27 261.7L323.957 278.746C323.947 278.76 323.873 278.86 323.725 278.985C323.576 279.111 323.437 279.19 323.356 279.228C323.197 279.301 323.584 279.07 324.943 279.07V249.07ZM319.934 257.742L315.979 255.105L299.338 280.067L303.293 282.703L319.934 257.742ZM319.658 276.586C324.007 270.788 325.295 263.998 325.295 257.918H295.295C295.295 258.926 295.184 259.392 295.164 259.464C295.153 259.504 295.254 259.125 295.658 258.586L319.658 276.586ZM325.295 257.918C325.295 250.805 322.734 242.005 319.384 232.943L291.245 243.342C294.536 252.249 295.295 256.633 295.295 257.918H325.295ZM319.402 232.992C315.921 223.468 312.068 214.319 307.839 205.552L280.818 218.585C284.596 226.419 288.068 234.653 291.226 243.293L319.402 232.992ZM307.884 205.647C297.558 183.847 293.508 168.866 293.508 159.627H263.508C263.508 175.779 270.005 195.758 280.772 218.49L307.884 205.647ZM278.508 144.627H276.75V174.627H278.508V144.627ZM261.75 159.627C261.75 169.051 257.655 184.127 247.25 205.892L274.316 218.831C285.2 196.064 291.75 175.984 291.75 159.627H261.75ZM247.261 205.868C241.789 217.266 237.524 227.332 234.6 235.97C231.76 244.36 229.816 252.445 229.816 259.529H259.816C259.816 257.336 260.534 252.921 263.016 245.589C265.414 238.504 269.133 229.625 274.305 218.854L247.261 205.868ZM229.816 259.529C229.816 265.869 231.791 272.002 236.035 277.139L259.164 258.033C259.349 258.257 259.553 258.593 259.69 258.989C259.822 259.372 259.816 259.591 259.816 259.529H229.816ZM239.279 255.105L235.324 257.742L251.965 282.703L255.92 280.067L239.279 255.105ZM255.988 261.7C249.735 252.644 240.095 249.07 230.314 249.07V279.07C231.673 279.07 232.061 279.301 231.902 279.228C231.821 279.19 231.682 279.111 231.533 278.985C231.385 278.86 231.311 278.76 231.301 278.746L255.988 261.7ZM230.274 249.07L176.075 249.217L176.156 279.217L230.355 279.07L230.274 249.07ZM176.115 249.217C172.242 249.217 166.858 249.704 161.98 252.598C155.872 256.221 152.473 262.472 152.473 269.344H182.473C182.473 270.642 182.182 272.505 181.09 274.449C179.989 276.407 178.51 277.674 177.286 278.399C176.16 279.068 175.339 279.233 175.244 279.252C175.125 279.276 175.372 279.217 176.115 279.217V249.217ZM152.509 270.382L154.999 306.271L184.927 304.194L182.437 268.305L152.509 270.382ZM154.963 305.232C154.963 305.242 154.963 305.137 155.009 304.962C155.056 304.783 155.123 304.631 155.181 304.529L181.229 319.413C183.74 315.017 184.963 310.193 184.963 305.232H154.963ZM155.181 304.529C155.634 303.737 156.602 302.451 158.327 301.415C160.089 300.358 161.836 300.047 163.078 300.047V330.047C171.04 330.047 177.556 325.841 181.229 319.413L155.181 304.529ZM562.102 345.955L547.114 345.335L547.102 345.645V345.955H562.102ZM563.713 306.99L578.7 307.61L578.713 307.3V306.99H563.713ZM562.248 283.113L547.747 286.952L547.8 287.149L547.858 287.346L562.248 283.113ZM550.09 263.777L541.769 276.258L541.902 276.347L542.037 276.432L550.09 263.777ZM508.488 270.369L497.055 260.659L497.016 260.705L496.978 260.751L508.488 270.369ZM501.75 312.557L516.466 309.652L516.462 309.634L516.459 309.615L501.75 312.557ZM491.203 312.41L476.509 309.396L476.49 309.487L476.473 309.577L491.203 312.41ZM493.547 295.125L478.552 294.733L478.547 294.929V295.125H493.547ZM494.572 255.867L509.567 256.259L509.572 256.063V255.867H494.572ZM488.859 69.0996L477.997 58.7548L467.77 69.4937L478.391 79.8431L488.859 69.0996ZM491.789 66.0234L502.134 55.1614L491.272 44.8165L480.927 55.6786L491.789 66.0234ZM574.113 66.0234L584.975 55.6786L574.375 44.5484L563.507 55.4168L574.113 66.0234ZM577.043 69.0996L587.65 79.7062L598.001 69.3552L587.905 58.7548L577.043 69.0996ZM569.719 281.355L554.775 280.061L554.774 280.071L569.719 281.355ZM568.693 310.213V325.213H584.588L583.668 309.345L568.693 310.213ZM568.547 310.213V295.213H549.835L553.906 313.476L568.547 310.213ZM577.089 346.575L578.7 307.61L548.726 306.37L547.114 345.335L577.089 346.575ZM578.713 306.99C578.713 300.538 578.589 295.062 578.319 290.654C578.071 286.622 577.647 282.31 576.639 278.881L547.858 287.346C547.826 287.237 548.134 288.564 548.375 292.491C548.593 296.043 548.713 300.844 548.713 306.99H578.713ZM576.749 279.275C575.765 275.559 574.679 272.095 573.465 268.94L545.465 279.709C546.204 281.631 546.973 284.026 547.747 286.952L576.749 279.275ZM573.465 268.94C571.905 264.883 569.611 260.913 566.263 257.565L545.05 278.778C544.827 278.556 545.072 278.688 545.465 279.709L573.465 268.94ZM566.263 257.565C563.82 255.122 561.078 252.99 558.143 251.122L542.037 276.432C543.398 277.299 544.368 278.097 545.05 278.778L566.263 257.565ZM558.41 251.297C550.576 246.074 540.482 244.676 530.754 244.676V274.676C534.426 274.676 537.142 274.966 539.067 275.375C540.012 275.575 540.685 275.787 541.138 275.963C541.36 276.05 541.519 276.123 541.623 276.176C541.726 276.229 541.771 276.259 541.769 276.258L558.41 251.297ZM530.754 244.676C517.25 244.676 505.752 250.42 497.055 260.659L519.921 280.079C523.334 276.061 526.679 274.676 530.754 274.676V244.676ZM496.978 260.751C488.597 270.781 484.553 282.801 484.553 296.004H514.553C514.553 289.285 516.466 284.216 519.999 279.987L496.978 260.751ZM484.553 296.004C484.553 301.259 485.536 307.971 487.041 315.498L516.459 309.615C515.034 302.493 514.553 298.171 514.553 296.004H484.553ZM487.034 315.461C488.462 322.697 488.947 327.076 488.947 329.256H518.947C518.947 324.013 517.968 317.26 516.466 309.652L487.034 315.461ZM488.947 329.256C488.947 330.176 488.861 330.511 488.882 330.423C488.904 330.331 489.101 329.538 489.839 328.496C490.645 327.359 491.847 326.283 493.358 325.571C494.792 324.897 495.962 324.803 496.477 324.803V354.803C502.959 354.803 509.794 352.226 514.32 345.836C518.174 340.395 518.947 334.086 518.947 329.256H488.947ZM496.477 324.803C496.936 324.803 498.053 324.883 499.449 325.522C500.927 326.198 502.15 327.244 502.997 328.406C504.457 330.411 504.006 331.591 504.006 329.549H474.006C474.006 334.343 474.799 340.65 478.75 346.072C483.344 352.378 490.16 354.803 496.477 354.803V324.803ZM504.006 329.549C504.006 327.233 504.504 322.677 505.933 315.243L476.473 309.577C474.973 317.377 474.006 324.248 474.006 329.549H504.006ZM505.897 315.424C507.505 307.587 508.547 300.607 508.547 295.125H478.547C478.547 297.455 478.026 301.999 476.509 309.396L505.897 315.424ZM508.542 295.517L509.567 256.259L479.577 255.476L478.552 294.733L508.542 295.517ZM509.572 255.867V83.748H479.572V255.867H509.572ZM509.572 83.748C509.572 74.2601 506.445 65.2911 499.327 58.3562L478.391 79.8431C478.891 80.3299 479.572 81.1266 479.572 83.748H509.572ZM499.721 79.4444L502.651 76.3683L480.927 55.6786L477.997 58.7548L499.721 79.4444ZM481.444 76.8855C488.335 83.4481 496.922 86.8828 506.438 86.8828V56.8828C504.625 56.8828 503.446 56.4113 502.134 55.1614L481.444 76.8855ZM506.438 86.8828H559.465V56.8828H506.438V86.8828ZM559.465 86.8828C569.035 86.8828 577.817 83.5332 584.72 76.63L563.507 55.4168C562.597 56.3262 561.614 56.8828 559.465 56.8828V86.8828ZM563.251 76.3683L566.181 79.4444L587.905 58.7548L584.975 55.6786L563.251 76.3683ZM566.436 58.493C559.504 65.4256 556.33 74.2753 556.33 83.748H586.33C586.33 81.3067 586.965 80.3908 587.65 79.7062L566.436 58.493ZM556.33 83.748V255.135H586.33V83.748H556.33ZM556.33 255.135C556.33 259.493 555.85 267.651 554.775 280.061L584.663 282.65C585.736 270.256 586.33 260.932 586.33 255.135H556.33ZM554.774 280.071C553.681 292.791 553.265 303.258 553.719 311.081L583.668 309.345C583.34 303.691 583.608 294.92 584.664 282.64L554.774 280.071ZM568.693 295.213H568.547V325.213H568.693V295.213ZM553.906 313.476C557.461 329.427 558.967 340.475 558.967 347.273H588.967C588.967 337.08 586.859 323.421 583.188 306.95L553.906 313.476ZM558.967 347.273C558.967 348.956 558.885 350.16 558.783 350.967C558.675 351.827 558.583 351.909 558.733 351.512C558.862 351.172 559.51 349.567 561.346 347.954C563.484 346.075 566.3 345.018 569.133 345.018V375.018C573.577 375.018 577.803 373.429 581.149 370.489C584.194 367.813 585.849 364.615 586.783 362.151C588.573 357.433 588.967 352.04 588.967 347.273H558.967ZM569.133 345.018C570.586 345.018 572.526 345.424 574.377 346.658C576.134 347.829 576.972 349.186 577.276 349.794C577.55 350.343 577.466 350.417 577.337 349.641C577.214 348.906 577.102 347.714 577.102 345.955H547.102C547.102 351.409 547.704 357.732 550.443 363.21C551.919 366.161 554.221 369.276 557.736 371.619C561.345 374.025 565.336 375.018 569.133 375.018V345.018ZM623.918 284.871H638.918V284.797L638.917 284.723L623.918 284.871ZM623.625 255.135H608.625V255.209L608.626 255.283L623.625 255.135ZM618.059 68.6602L607.452 58.0536L596.845 68.6602L607.452 79.2668L618.059 68.6602ZM620.988 65.7305L631.595 55.1239L620.988 44.5173L610.382 55.1239L620.988 65.7305ZM802.922 73.0547L800.489 87.856L800.505 87.8587L800.521 87.8613L802.922 73.0547ZM821.818 77.0098L817.872 91.4812L817.995 91.5148L818.118 91.5462L821.818 77.0098ZM855.51 99.7148L868.435 92.1033L868.43 92.0951L855.51 99.7148ZM859.611 157.137L845.31 152.611L845.292 152.668L845.275 152.725L859.611 157.137ZM848.186 177.645L836.874 167.793L836.848 167.823L836.821 167.854L848.186 177.645ZM697.014 191.121L707.62 180.514L697.531 170.425L686.95 179.998L697.014 191.121ZM693.938 193.904L683.874 182.781L672.181 193.361L683.331 204.511L693.938 193.904ZM699.504 282.82L700.832 297.761L714.261 296.568L714.502 283.088L699.504 282.82ZM692.912 283.406L678.012 285.136L679.696 299.64L694.24 298.347L692.912 283.406ZM632.561 274.031L617.765 271.565L617.736 271.737L617.711 271.91L632.561 274.031ZM693.938 155.232L683.331 144.626L672.724 155.232L683.331 165.839L693.938 155.232ZM697.014 158.309L686.407 168.915L697.014 179.522L707.62 168.915L697.014 158.309ZM776.848 150.984L784.076 164.128L784.323 163.992L784.565 163.847L776.848 150.984ZM781.828 147.469L791.59 158.858L791.78 158.695L791.964 158.526L781.828 147.469ZM784.025 129.451L770.098 135.022L770.271 135.453L770.469 135.872L784.025 129.451ZM770.109 120.809L772.049 105.935L772.01 105.929L771.97 105.924L770.109 120.809ZM697.014 114.656L707.62 104.05L697.531 93.9601L686.95 103.533L697.014 114.656ZM693.938 117.439L683.874 106.316L672.181 116.896L683.331 128.046L693.938 117.439ZM664.641 276.961H649.641V277.781L649.73 278.597L664.641 276.961ZM668.449 311.678H683.449V310.857L683.36 310.042L668.449 311.678ZM658.049 293.074L643.379 289.943L643.359 290.037L643.34 290.132L658.049 293.074ZM660.686 265.682H645.686V265.856L645.69 266.03L660.686 265.682ZM660.686 255.135L672.12 245.426L645.686 214.292V255.135H660.686ZM667.277 262.898V277.898H699.691L678.712 253.19L667.277 262.898ZM665.373 267.586L650.63 264.822L650.582 265.079L650.542 265.339L665.373 267.586ZM638.917 284.723L638.624 254.987L608.626 255.283L608.919 285.019L638.917 284.723ZM638.625 255.135V83.1621H608.625V255.135H638.625ZM638.625 83.1621C638.625 73.8119 635.578 64.9659 628.665 58.0536L607.452 79.2668C607.962 79.7763 608.625 80.5982 608.625 83.1621H638.625ZM628.665 79.2668L631.595 76.3371L610.382 55.1239L607.452 58.0536L628.665 79.2668ZM610.382 76.3371C617.294 83.2494 626.14 86.2969 635.49 86.2969V56.2969C632.926 56.2969 632.104 55.6334 631.595 55.1239L610.382 76.3371ZM635.49 86.2969H761.906V56.2969H635.49V86.2969ZM761.906 86.2969C782.264 86.2969 794.748 86.9123 800.489 87.856L805.355 58.2533C796.838 56.8533 781.978 56.2969 761.906 56.2969V86.2969ZM800.521 87.8613C807.378 88.9733 813.139 90.1905 817.872 91.4812L825.765 62.5383C819.756 60.8994 812.919 59.4798 805.323 58.2481L800.521 87.8613ZM818.118 91.5462C822.68 92.7075 825.936 93.9823 828.162 95.1858L842.428 68.7946C837.428 66.0919 831.698 64.0464 825.519 62.4733L818.118 91.5462ZM828.162 95.1858C830.874 96.6519 833.853 98.627 837.094 101.203L855.761 77.7186C851.385 74.2402 846.942 71.2348 842.428 68.7946L828.162 95.1858ZM837.094 101.203C839.609 103.202 841.366 105.26 842.589 107.335L868.43 92.0951C865.162 86.5529 860.864 81.7742 855.761 77.7186L837.094 101.203ZM842.584 107.326C846.304 113.642 848.273 120.843 848.273 129.305H878.273C878.273 115.891 875.068 103.366 868.435 92.1033L842.584 107.326ZM848.273 129.305C848.273 139.096 847.162 146.761 845.31 152.611L873.912 161.662C876.944 152.083 878.273 141.193 878.273 129.305H848.273ZM845.275 152.725C843.553 158.322 840.781 163.308 836.874 167.793L859.497 187.496C866.137 179.872 870.983 171.186 873.948 161.548L845.275 152.725ZM836.821 167.854C830.022 175.746 816.742 181.688 792.375 181.688V211.688C820.547 211.688 844.474 204.933 859.55 187.435L836.821 167.854ZM792.375 181.688H711.662V211.688H792.375V181.688ZM711.662 181.688C708.923 181.688 708.082 180.976 707.62 180.514L686.407 201.728C693.367 208.688 702.292 211.688 711.662 211.688V181.688ZM686.95 179.998L683.874 182.781L704.001 205.027L707.077 202.244L686.95 179.998ZM683.331 204.511C684.24 205.42 684.797 206.404 684.797 208.553H714.797C714.797 198.983 711.447 190.201 704.544 183.298L683.331 204.511ZM684.797 208.553V255.135H714.797V208.553H684.797ZM684.797 255.135C684.797 262.535 684.701 271.668 684.506 282.552L714.502 283.088C714.698 272.098 714.797 262.774 714.797 255.135H684.797ZM698.176 267.879L691.584 268.465L694.24 298.347L700.832 297.761L698.176 267.879ZM707.812 281.677C707.15 275.974 706.298 270.796 705.068 266.744C704.485 264.822 703.52 262.124 701.809 259.603C700.3 257.38 695.878 252 687.932 252V282C681.011 282 677.565 277.304 676.984 276.448C676.201 275.294 676.115 274.647 676.362 275.459C676.792 276.876 677.405 279.901 678.012 285.136L707.812 281.677ZM687.932 252H635.49V282H687.932V252ZM635.49 252C629.651 252 625.646 255.062 623.591 257.304C621.657 259.413 620.595 261.638 620.033 262.989C618.873 265.773 618.211 268.888 617.765 271.565L647.356 276.497C647.691 274.487 647.909 274.086 647.725 274.527C647.651 274.706 647.102 276.052 645.705 277.575C644.187 279.231 640.743 282 635.49 282V252ZM617.711 271.91C616.94 277.312 616.535 282.566 616.535 287.654H646.535C646.535 284.149 646.814 280.32 647.41 276.153L617.711 271.91ZM616.535 287.654C616.535 293.509 617.695 302.098 619.549 312.542L649.087 307.297C647.231 296.843 646.535 290.589 646.535 287.654H616.535ZM619.549 312.542C621.414 323.043 622.102 329.172 622.102 331.893H652.102C652.102 326.214 650.934 317.696 649.087 307.297L619.549 312.542ZM622.102 331.893C622.102 333.277 621.971 334.006 621.912 334.25C621.855 334.484 621.937 333.973 622.523 333.17C623.173 332.276 624.152 331.43 625.338 330.888C626.441 330.383 627.217 330.369 627.287 330.369V360.369C634.387 360.369 641.79 357.674 646.773 350.83C651.113 344.871 652.102 337.76 652.102 331.893H622.102ZM627.287 330.369C627.399 330.369 628.215 330.391 629.348 330.921C630.559 331.487 631.522 332.352 632.141 333.22C632.694 333.996 632.751 334.458 632.68 334.156C632.607 333.849 632.473 333.052 632.473 331.6H602.473C602.473 337.518 603.445 344.648 607.711 350.633C612.644 357.553 620.06 360.369 627.287 360.369V330.369ZM632.473 331.6C632.473 328.819 633.26 322.362 635.424 311.151L605.967 305.466C603.834 316.521 602.473 325.591 602.473 331.6H632.473ZM635.424 311.151C637.561 300.073 638.918 290.968 638.918 284.871H608.918C608.918 287.759 608.126 294.279 605.967 305.466L635.424 311.151ZM684.797 132.088V140.73H714.797V132.088H684.797ZM684.797 140.73C684.797 142.705 684.292 143.665 683.331 144.626L704.544 165.839C711.395 158.988 714.797 150.28 714.797 140.73H684.797ZM683.331 165.839L686.407 168.915L707.62 147.702L704.544 144.626L683.331 165.839ZM707.62 168.915C708.305 168.231 709.221 167.596 711.662 167.596V137.596C702.189 137.596 693.34 140.769 686.407 147.702L707.62 168.915ZM711.662 167.596H759.123V137.596H711.662V167.596ZM759.123 167.596C764.254 167.596 768.707 167.459 772.31 167.131C774.106 166.968 775.933 166.736 777.653 166.384C779.132 166.081 781.611 165.483 784.076 164.128L769.619 137.841C771.107 137.022 772.116 136.895 771.629 136.995C771.384 137.045 770.751 137.149 769.594 137.254C767.288 137.464 763.855 137.596 759.123 137.596V167.596ZM784.565 163.847C787.06 162.35 789.442 160.698 791.59 158.858L772.066 136.08C771.479 136.583 770.541 137.275 769.13 138.122L784.565 163.847ZM791.964 158.526C798.173 152.835 800.344 145.284 800.344 138.24H770.344C770.344 138.8 770.26 138.702 770.448 138.21C770.543 137.96 770.694 137.647 770.921 137.309C771.149 136.97 771.414 136.667 771.692 136.411L791.964 158.526ZM800.344 138.24C800.344 133.734 799.943 128.015 797.581 123.03L770.469 135.872C770.25 135.41 770.161 135.101 770.141 135.028C770.119 134.95 770.143 135.016 770.18 135.265C770.259 135.789 770.344 136.743 770.344 138.24H800.344ZM797.953 123.88C796.196 119.49 793.274 115.483 789.008 112.55L772.012 137.271C771.502 136.92 771.054 136.492 770.7 136.034C770.353 135.586 770.175 135.213 770.098 135.022L797.953 123.88ZM789.008 112.55C786.748 110.996 784.358 109.635 781.835 108.531L769.81 136.016C770.412 136.279 771.147 136.676 772.012 137.271L789.008 112.55ZM781.835 108.531C778.63 107.129 775.27 106.355 772.049 105.935L768.169 135.683C769.441 135.849 769.89 136.051 769.81 136.016L781.835 108.531ZM771.97 105.924C768.116 105.443 764.016 105.223 759.709 105.223V135.223C763.019 135.223 765.853 135.393 768.249 135.693L771.97 105.924ZM759.709 105.223H711.662V135.223H759.709V105.223ZM711.662 105.223C708.923 105.223 708.082 104.511 707.62 104.05L686.407 125.263C693.367 132.223 702.292 135.223 711.662 135.223V105.223ZM686.95 103.533L683.874 106.316L704.001 128.562L707.077 125.779L686.95 103.533ZM683.331 128.046C684.24 128.955 684.797 129.939 684.797 132.088H714.797C714.797 122.518 711.447 113.736 704.544 106.833L683.331 128.046ZM649.73 278.597L653.539 313.313L683.36 310.042L679.551 275.325L649.73 278.597ZM653.449 311.678C653.449 313.252 653.081 311.711 654.73 309.475C655.668 308.203 656.992 307.096 658.565 306.385C660.053 305.713 661.275 305.613 661.857 305.613V335.613C667.809 335.613 674.396 333.352 678.872 327.284C682.719 322.069 683.449 316.06 683.449 311.678H653.449ZM661.857 305.613C662.539 305.613 663.855 305.736 665.415 306.469C667.052 307.238 668.362 308.402 669.256 309.662C670.797 311.833 670.412 313.24 670.412 311.531H640.412C640.412 315.877 641.101 321.825 644.791 327.024C649.151 333.168 655.728 335.613 661.857 335.613V305.613ZM670.412 311.531C670.412 309.682 670.986 304.873 672.758 296.016L643.34 290.132C641.596 298.853 640.412 306.349 640.412 311.531H670.412ZM672.718 296.206C674.497 287.873 675.832 280.548 675.832 275.936H645.832C645.832 275.86 645.833 276.133 645.748 276.907C645.668 277.634 645.534 278.609 645.33 279.867C644.921 282.387 644.28 285.725 643.379 289.943L672.718 296.206ZM675.832 275.936C675.832 273.135 675.78 269.589 675.681 265.333L645.69 266.03C645.786 270.173 645.832 273.462 645.832 275.936H675.832ZM675.686 265.682C675.686 265.673 675.686 265.665 675.686 265.657C675.686 265.649 675.686 265.641 675.686 265.632C675.686 265.624 675.686 265.616 675.686 265.608C675.686 265.6 675.686 265.592 675.686 265.583C675.686 265.575 675.686 265.567 675.686 265.559C675.686 265.551 675.686 265.542 675.686 265.534C675.686 265.526 675.686 265.518 675.686 265.51C675.686 265.502 675.686 265.493 675.686 265.485C675.686 265.477 675.686 265.469 675.686 265.461C675.686 265.453 675.686 265.445 675.686 265.436C675.686 265.428 675.686 265.42 675.686 265.412C675.686 265.404 675.686 265.396 675.686 265.388C675.686 265.379 675.686 265.371 675.686 265.363C675.686 265.355 675.686 265.347 675.686 265.339C675.686 265.331 675.686 265.322 675.686 265.314C675.686 265.306 675.686 265.298 675.686 265.29C675.686 265.282 675.686 265.274 675.686 265.266C675.686 265.258 675.686 265.249 675.686 265.241C675.686 265.233 675.686 265.225 675.686 265.217C675.686 265.209 675.686 265.201 675.686 265.193C675.686 265.185 675.686 265.176 675.686 265.168C675.686 265.16 675.686 265.152 675.686 265.144C675.686 265.136 675.686 265.128 675.686 265.12C675.686 265.112 675.686 265.104 675.686 265.096C675.686 265.088 675.686 265.079 675.686 265.071C675.686 265.063 675.686 265.055 675.686 265.047C675.686 265.039 675.686 265.031 675.686 265.023C675.686 265.015 675.686 265.007 675.686 264.999C675.686 264.991 675.686 264.983 675.686 264.975C675.686 264.967 675.686 264.959 675.686 264.951C675.686 264.942 675.686 264.934 675.686 264.926C675.686 264.918 675.686 264.91 675.686 264.902C675.686 264.894 675.686 264.886 675.686 264.878C675.686 264.87 675.686 264.862 675.686 264.854C675.686 264.846 675.686 264.838 675.686 264.83C675.686 264.822 675.686 264.814 675.686 264.806C675.686 264.798 675.686 264.79 675.686 264.782C675.686 264.774 675.686 264.766 675.686 264.758C675.686 264.75 675.686 264.742 675.686 264.734C675.686 264.726 675.686 264.718 675.686 264.71C675.686 264.702 675.686 264.694 675.686 264.686C675.686 264.678 675.686 264.67 675.686 264.662C675.686 264.654 675.686 264.646 675.686 264.638C675.686 264.63 675.686 264.622 675.686 264.614C675.686 264.606 675.686 264.598 675.686 264.59C675.686 264.582 675.686 264.574 675.686 264.566C675.686 264.558 675.686 264.55 675.686 264.542C675.686 264.535 675.686 264.527 675.686 264.519C675.686 264.511 675.686 264.503 675.686 264.495C675.686 264.487 675.686 264.479 675.686 264.471C675.686 264.463 675.686 264.455 675.686 264.447C675.686 264.439 675.686 264.431 675.686 264.423C675.686 264.415 675.686 264.407 675.686 264.4C675.686 264.392 675.686 264.384 675.686 264.376C675.686 264.368 675.686 264.36 675.686 264.352C675.686 264.344 675.686 264.336 675.686 264.328C675.686 264.32 675.686 264.312 675.686 264.305C675.686 264.297 675.686 264.289 675.686 264.281C675.686 264.273 675.686 264.265 675.686 264.257C675.686 264.249 675.686 264.241 675.686 264.234C675.686 264.226 675.686 264.218 675.686 264.21C675.686 264.202 675.686 264.194 675.686 264.186C675.686 264.178 675.686 264.17 675.686 264.163C675.686 264.155 675.686 264.147 675.686 264.139C675.686 264.131 675.686 264.123 675.686 264.115C675.686 264.108 675.686 264.1 675.686 264.092C675.686 264.084 675.686 264.076 675.686 264.068C675.686 264.06 675.686 264.053 675.686 264.045C675.686 264.037 675.686 264.029 675.686 264.021C675.686 264.013 675.686 264.005 675.686 263.998C675.686 263.99 675.686 263.982 675.686 263.974C675.686 263.966 675.686 263.958 675.686 263.951C675.686 263.943 675.686 263.935 675.686 263.927C675.686 263.919 675.686 263.912 675.686 263.904C675.686 263.896 675.686 263.888 675.686 263.88C675.686 263.872 675.686 263.865 675.686 263.857C675.686 263.849 675.686 263.841 675.686 263.833C675.686 263.826 675.686 263.818 675.686 263.81C675.686 263.802 675.686 263.794 675.686 263.787C675.686 263.779 675.686 263.771 675.686 263.763C675.686 263.756 675.686 263.748 675.686 263.74C675.686 263.732 675.686 263.724 675.686 263.717C675.686 263.709 675.686 263.701 675.686 263.693C675.686 263.686 675.686 263.678 675.686 263.67C675.686 263.662 675.686 263.655 675.686 263.647C675.686 263.639 675.686 263.631 675.686 263.623C675.686 263.616 675.686 263.608 675.686 263.6C675.686 263.592 675.686 263.585 675.686 263.577C675.686 263.569 675.686 263.562 675.686 263.554C675.686 263.546 675.686 263.538 675.686 263.531C675.686 263.523 675.686 263.515 675.686 263.507C675.686 263.5 675.686 263.492 675.686 263.484C675.686 263.476 675.686 263.469 675.686 263.461C675.686 263.453 675.686 263.446 675.686 263.438C675.686 263.43 675.686 263.422 675.686 263.415C675.686 263.407 675.686 263.399 675.686 263.392C675.686 263.384 675.686 263.376 675.686 263.369C675.686 263.361 675.686 263.353 675.686 263.346C675.686 263.338 675.686 263.33 675.686 263.322C675.686 263.315 675.686 263.307 675.686 263.299C675.686 263.292 675.686 263.284 675.686 263.276C675.686 263.269 675.686 263.261 675.686 263.253C675.686 263.246 675.686 263.238 675.686 263.23C675.686 263.223 675.686 263.215 675.686 263.207C675.686 263.2 675.686 263.192 675.686 263.184C675.686 263.177 675.686 263.169 675.686 263.161C675.686 263.154 675.686 263.146 675.686 263.138C675.686 263.131 675.686 263.123 675.686 263.116C675.686 263.108 675.686 263.1 675.686 263.093C675.686 263.085 675.686 263.077 675.686 263.07C675.686 263.062 675.686 263.055 675.686 263.047C675.686 263.039 675.686 263.032 675.686 263.024C675.686 263.016 675.686 263.009 675.686 263.001C675.686 262.994 675.686 262.986 675.686 262.978C675.686 262.971 675.686 262.963 675.686 262.956C675.686 262.948 675.686 262.94 675.686 262.933C675.686 262.925 675.686 262.918 675.686 262.91C675.686 262.902 675.686 262.895 675.686 262.887C675.686 262.88 675.686 262.872 675.686 262.864C675.686 262.857 675.686 262.849 675.686 262.842C675.686 262.834 675.686 262.827 675.686 262.819C675.686 262.811 675.686 262.804 675.686 262.796C675.686 262.789 675.686 262.781 675.686 262.774C675.686 262.766 675.686 262.758 675.686 262.751C675.686 262.743 675.686 262.736 675.686 262.728C675.686 262.721 675.686 262.713 675.686 262.706C675.686 262.698 675.686 262.691 675.686 262.683C675.686 262.675 675.686 262.668 675.686 262.66C675.686 262.653 675.686 262.645 675.686 262.638C675.686 262.63 675.686 262.623 675.686 262.615C675.686 262.608 675.686 262.6 675.686 262.593C675.686 262.585 675.686 262.578 675.686 262.57C675.686 262.563 675.686 262.555 675.686 262.548C675.686 262.54 675.686 262.533 675.686 262.525C675.686 262.518 675.686 262.51 675.686 262.503C675.686 262.495 675.686 262.488 675.686 262.48C675.686 262.473 675.686 262.465 675.686 262.458C675.686 262.45 675.686 262.443 675.686 262.435C675.686 262.428 675.686 262.42 675.686 262.413C675.686 262.405 675.686 262.398 675.686 262.39C675.686 262.383 675.686 262.375 675.686 262.368C675.686 262.36 675.686 262.353 675.686 262.346C675.686 262.338 675.686 262.331 675.686 262.323C675.686 262.316 675.686 262.308 675.686 262.301C675.686 262.293 675.686 262.286 675.686 262.278C675.686 262.271 675.686 262.264 675.686 262.256C675.686 262.249 675.686 262.241 675.686 262.234C675.686 262.226 675.686 262.219 675.686 262.211C675.686 262.204 675.686 262.197 675.686 262.189C675.686 262.182 675.686 262.174 675.686 262.167C675.686 262.16 675.686 262.152 675.686 262.145C675.686 262.137 675.686 262.13 675.686 262.122C675.686 262.115 675.686 262.108 675.686 262.1C675.686 262.093 675.686 262.085 675.686 262.078C675.686 262.071 675.686 262.063 675.686 262.056C675.686 262.048 675.686 262.041 675.686 262.034C675.686 262.026 675.686 262.019 675.686 262.012C675.686 262.004 675.686 261.997 675.686 261.989C675.686 261.982 675.686 261.975 675.686 261.967C675.686 261.96 675.686 261.953 675.686 261.945C675.686 261.938 675.686 261.93 675.686 261.923C675.686 261.916 675.686 261.908 675.686 261.901C675.686 261.894 675.686 261.886 675.686 261.879C675.686 261.872 675.686 261.864 675.686 261.857C675.686 261.85 675.686 261.842 675.686 261.835C675.686 261.827 675.686 261.82 675.686 261.813C675.686 261.805 675.686 261.798 675.686 261.791C675.686 261.783 675.686 261.776 675.686 261.769C675.686 261.762 675.686 261.754 675.686 261.747C675.686 261.74 675.686 261.732 675.686 261.725C675.686 261.718 675.686 261.71 675.686 261.703C675.686 261.696 675.686 261.688 675.686 261.681C675.686 261.674 675.686 261.666 675.686 261.659C675.686 261.652 675.686 261.645 675.686 261.637C675.686 261.63 675.686 261.623 675.686 261.615C675.686 261.608 675.686 261.601 675.686 261.594C675.686 261.586 675.686 261.579 675.686 261.572C675.686 261.564 675.686 261.557 675.686 261.55C675.686 261.543 675.686 261.535 675.686 261.528C675.686 261.521 675.686 261.514 675.686 261.506C675.686 261.499 675.686 261.492 675.686 261.484C675.686 261.477 675.686 261.47 675.686 261.463C675.686 261.455 675.686 261.448 675.686 261.441C675.686 261.434 675.686 261.426 675.686 261.419C675.686 261.412 675.686 261.405 675.686 261.397C675.686 261.39 675.686 261.383 675.686 261.376C675.686 261.369 675.686 261.361 675.686 261.354C675.686 261.347 675.686 261.34 675.686 261.332C675.686 261.325 675.686 261.318 675.686 261.311C675.686 261.304 675.686 261.296 675.686 261.289C675.686 261.282 675.686 261.275 675.686 261.268C675.686 261.26 675.686 261.253 675.686 261.246C675.686 261.239 675.686 261.232 675.686 261.224C675.686 261.217 675.686 261.21 675.686 261.203C675.686 261.196 675.686 261.188 675.686 261.181C675.686 261.174 675.686 261.167 675.686 261.16C675.686 261.152 675.686 261.145 675.686 261.138C675.686 261.131 675.686 261.124 675.686 261.117C675.686 261.109 675.686 261.102 675.686 261.095C675.686 261.088 675.686 261.081 675.686 261.074C675.686 261.066 675.686 261.059 675.686 261.052C675.686 261.045 675.686 261.038 675.686 261.031C675.686 261.024 675.686 261.016 675.686 261.009C675.686 261.002 675.686 260.995 675.686 260.988C675.686 260.981 675.686 260.974 675.686 260.966C675.686 260.959 675.686 260.952 675.686 260.945C675.686 260.938 675.686 260.931 675.686 260.924C675.686 260.917 675.686 260.909 675.686 260.902C675.686 260.895 675.686 260.888 675.686 260.881C675.686 260.874 675.686 260.867 675.686 260.86C675.686 260.853 675.686 260.845 675.686 260.838C675.686 260.831 675.686 260.824 675.686 260.817C675.686 260.81 675.686 260.803 675.686 260.796C675.686 260.789 675.686 260.782 675.686 260.774C675.686 260.767 675.686 260.76 675.686 260.753C675.686 260.746 675.686 260.739 675.686 260.732C675.686 260.725 675.686 260.718 675.686 260.711C675.686 260.704 675.686 260.697 675.686 260.69C675.686 260.683 675.686 260.675 675.686 260.668C675.686 260.661 675.686 260.654 675.686 260.647C675.686 260.64 675.686 260.633 675.686 260.626C675.686 260.619 675.686 260.612 675.686 260.605C675.686 260.598 675.686 260.591 675.686 260.584C675.686 260.577 675.686 260.57 675.686 260.563C675.686 260.556 675.686 260.549 675.686 260.542C675.686 260.535 675.686 260.528 675.686 260.521C675.686 260.514 675.686 260.506 675.686 260.499C675.686 260.492 675.686 260.485 675.686 260.478C675.686 260.471 675.686 260.464 675.686 260.457C675.686 260.45 675.686 260.443 675.686 260.436C675.686 260.429 675.686 260.422 675.686 260.415C675.686 260.408 675.686 260.401 675.686 260.394C675.686 260.387 675.686 260.38 675.686 260.373C675.686 260.366 675.686 260.359 675.686 260.352C675.686 260.345 675.686 260.339 675.686 260.332C675.686 260.325 675.686 260.318 675.686 260.311C675.686 260.304 675.686 260.297 675.686 260.29C675.686 260.283 675.686 260.276 675.686 260.269C675.686 260.262 675.686 260.255 675.686 260.248C675.686 260.241 675.686 260.234 675.686 260.227C675.686 260.22 675.686 260.213 675.686 260.206C675.686 260.199 675.686 260.192 675.686 260.185C675.686 260.178 675.686 260.172 675.686 260.165C675.686 260.158 675.686 260.151 675.686 260.144C675.686 260.137 675.686 260.13 675.686 260.123C675.686 260.116 675.686 260.109 675.686 260.102C675.686 260.095 675.686 260.088 675.686 260.082C675.686 260.075 675.686 260.068 675.686 260.061C675.686 260.054 675.686 260.047 675.686 260.04C675.686 260.033 675.686 260.026 675.686 260.019C675.686 260.012 675.686 260.006 675.686 259.999C675.686 259.992 675.686 259.985 675.686 259.978C675.686 259.971 675.686 259.964 675.686 259.957C675.686 259.95 675.686 259.944 675.686 259.937C675.686 259.93 675.686 259.923 675.686 259.916C675.686 259.909 675.686 259.902 675.686 259.896C675.686 259.889 675.686 259.882 675.686 259.875C675.686 259.868 675.686 259.861 675.686 259.854C675.686 259.847 675.686 259.841 675.686 259.834C675.686 259.827 675.686 259.82 675.686 259.813C675.686 259.806 675.686 259.8 675.686 259.793C675.686 259.786 675.686 259.779 675.686 259.772C675.686 259.765 675.686 259.759 675.686 259.752C675.686 259.745 675.686 259.738 675.686 259.731C675.686 259.724 675.686 259.718 675.686 259.711C675.686 259.704 675.686 259.697 675.686 259.69C675.686 259.683 675.686 259.677 675.686 259.67C675.686 259.663 675.686 259.656 675.686 259.649C675.686 259.643 675.686 259.636 675.686 259.629C675.686 259.622 675.686 259.615 675.686 259.609C675.686 259.602 675.686 259.595 675.686 259.588C675.686 259.581 675.686 259.575 675.686 259.568C675.686 259.561 675.686 259.554 675.686 259.548C675.686 259.541 675.686 259.534 675.686 259.527C675.686 259.52 675.686 259.514 675.686 259.507C675.686 259.5 675.686 259.493 675.686 259.487C675.686 259.48 675.686 259.473 675.686 259.466C675.686 259.46 675.686 259.453 675.686 259.446C675.686 259.439 675.686 259.433 675.686 259.426C675.686 259.419 675.686 259.412 675.686 259.406C675.686 259.399 675.686 259.392 675.686 259.385C675.686 259.379 675.686 259.372 675.686 259.365C675.686 259.358 675.686 259.352 675.686 259.345C675.686 259.338 675.686 259.332 675.686 259.325C675.686 259.318 675.686 259.311 675.686 259.305C675.686 259.298 675.686 259.291 675.686 259.285C675.686 259.278 675.686 259.271 675.686 259.264C675.686 259.258 675.686 259.251 675.686 259.244C675.686 259.238 675.686 259.231 675.686 259.224C675.686 259.218 675.686 259.211 675.686 259.204C675.686 259.197 675.686 259.191 675.686 259.184C675.686 259.177 675.686 259.171 675.686 259.164C675.686 259.157 675.686 259.151 675.686 259.144C675.686 259.137 675.686 259.131 675.686 259.124C675.686 259.117 675.686 259.111 675.686 259.104C675.686 259.097 675.686 259.091 675.686 259.084C675.686 259.077 675.686 259.071 675.686 259.064C675.686 259.057 675.686 259.051 675.686 259.044C675.686 259.037 675.686 259.031 675.686 259.024C675.686 259.018 675.686 259.011 675.686 259.004C675.686 258.998 675.686 258.991 675.686 258.984C675.686 258.978 675.686 258.971 675.686 258.964C675.686 258.958 675.686 258.951 675.686 258.945C675.686 258.938 675.686 258.931 675.686 258.925C675.686 258.918 675.686 258.912 675.686 258.905C675.686 258.898 675.686 258.892 675.686 258.885C675.686 258.878 675.686 258.872 675.686 258.865C675.686 258.859 675.686 258.852 675.686 258.845C675.686 258.839 675.686 258.832 675.686 258.826C675.686 258.819 675.686 258.813 675.686 258.806C675.686 258.799 675.686 258.793 675.686 258.786C675.686 258.78 675.686 258.773 675.686 258.766C675.686 258.76 675.686 258.753 675.686 258.747C675.686 258.74 675.686 258.734 675.686 258.727C675.686 258.72 675.686 258.714 675.686 258.707C675.686 258.701 675.686 258.694 675.686 258.688C675.686 258.681 675.686 258.675 675.686 258.668C675.686 258.662 675.686 258.655 675.686 258.648C675.686 258.642 675.686 258.635 675.686 258.629C675.686 258.622 675.686 258.616 675.686 258.609C675.686 258.603 675.686 258.596 675.686 258.59C675.686 258.583 675.686 258.577 675.686 258.57C675.686 258.564 675.686 258.557 675.686 258.55C675.686 258.544 675.686 258.537 675.686 258.531C675.686 258.524 675.686 258.518 675.686 258.511C675.686 258.505 675.686 258.498 675.686 258.492C675.686 258.485 675.686 258.479 675.686 258.472C675.686 258.466 675.686 258.459 675.686 258.453C675.686 258.446 675.686 258.44 675.686 258.433C675.686 258.427 675.686 258.42 675.686 258.414C675.686 258.408 675.686 258.401 675.686 258.395C675.686 258.388 675.686 258.382 675.686 258.375C675.686 258.369 675.686 258.362 675.686 258.356C675.686 258.349 675.686 258.343 675.686 258.336C675.686 258.33 675.686 258.323 675.686 258.317C675.686 258.311 675.686 258.304 675.686 258.298C675.686 258.291 675.686 258.285 675.686 258.278C675.686 258.272 675.686 258.265 675.686 258.259C675.686 258.253 675.686 258.246 675.686 258.24C675.686 258.233 675.686 258.227 675.686 258.22C675.686 258.214 675.686 258.208 675.686 258.201C675.686 258.195 675.686 258.188 675.686 258.182C675.686 258.175 675.686 258.169 675.686 258.163C675.686 258.156 675.686 258.15 675.686 258.143C675.686 258.137 675.686 258.131 675.686 258.124C675.686 258.118 675.686 258.111 675.686 258.105C675.686 258.099 675.686 258.092 675.686 258.086C675.686 258.079 675.686 258.073 675.686 258.067C675.686 258.06 675.686 258.054 675.686 258.047C675.686 258.041 675.686 258.035 675.686 258.028C675.686 258.022 675.686 258.016 675.686 258.009C675.686 258.003 675.686 257.996 675.686 257.99C675.686 257.984 675.686 257.977 675.686 257.971C675.686 257.965 675.686 257.958 675.686 257.952C675.686 257.946 675.686 257.939 675.686 257.933C675.686 257.926 675.686 257.92 675.686 257.914C675.686 257.907 675.686 257.901 675.686 257.895C675.686 257.888 675.686 257.882 675.686 257.876C675.686 257.869 675.686 257.863 675.686 257.857C675.686 257.85 675.686 257.844 675.686 257.838C675.686 257.831 675.686 257.825 675.686 257.819C675.686 257.813 675.686 257.806 675.686 257.8C675.686 257.794 675.686 257.787 675.686 257.781C675.686 257.775 675.686 257.768 675.686 257.762C675.686 257.756 675.686 257.749 675.686 257.743C675.686 257.737 675.686 257.731 675.686 257.724C675.686 257.718 675.686 257.712 675.686 257.705C675.686 257.699 675.686 257.693 675.686 257.687C675.686 257.68 675.686 257.674 675.686 257.668C675.686 257.661 675.686 257.655 675.686 257.649C675.686 257.643 675.686 257.636 675.686 257.63C675.686 257.624 675.686 257.618 675.686 257.611C675.686 257.605 675.686 257.599 675.686 257.592C675.686 257.586 675.686 257.58 675.686 257.574C675.686 257.567 675.686 257.561 675.686 257.555C675.686 257.549 675.686 257.542 675.686 257.536C675.686 257.53 675.686 257.524 675.686 257.518C675.686 257.511 675.686 257.505 675.686 257.499C675.686 257.493 675.686 257.486 675.686 257.48C675.686 257.474 675.686 257.468 675.686 257.461C675.686 257.455 675.686 257.449 675.686 257.443C675.686 257.437 675.686 257.43 675.686 257.424C675.686 257.418 675.686 257.412 675.686 257.406C675.686 257.399 675.686 257.393 675.686 257.387C675.686 257.381 675.686 257.375 675.686 257.368C675.686 257.362 675.686 257.356 675.686 257.35C675.686 257.344 675.686 257.337 675.686 257.331C675.686 257.325 675.686 257.319 675.686 257.313C675.686 257.307 675.686 257.3 675.686 257.294C675.686 257.288 675.686 257.282 675.686 257.276C675.686 257.269 675.686 257.263 675.686 257.257C675.686 257.251 675.686 257.245 675.686 257.239C675.686 257.233 675.686 257.226 675.686 257.22C675.686 257.214 675.686 257.208 675.686 257.202C675.686 257.196 675.686 257.189 675.686 257.183C675.686 257.177 675.686 257.171 675.686 257.165C675.686 257.159 675.686 257.153 675.686 257.147C675.686 257.14 675.686 257.134 675.686 257.128C675.686 257.122 675.686 257.116 675.686 257.11C675.686 257.104 675.686 257.098 675.686 257.091C675.686 257.085 675.686 257.079 675.686 257.073C675.686 257.067 675.686 257.061 675.686 257.055C675.686 257.049 675.686 257.043 675.686 257.036C675.686 257.03 675.686 257.024 675.686 257.018C675.686 257.012 675.686 257.006 675.686 257C675.686 256.994 675.686 256.988 675.686 256.982C675.686 256.976 675.686 256.969 675.686 256.963C675.686 256.957 675.686 256.951 675.686 256.945C675.686 256.939 675.686 256.933 675.686 256.927C675.686 256.921 675.686 256.915 675.686 256.909C675.686 256.903 675.686 256.897 675.686 256.891C675.686 256.884 675.686 256.878 675.686 256.872C675.686 256.866 675.686 256.86 675.686 256.854C675.686 256.848 675.686 256.842 675.686 256.836C675.686 256.83 675.686 256.824 675.686 256.818C675.686 256.812 675.686 256.806 675.686 256.8C675.686 256.794 675.686 256.788 675.686 256.782C675.686 256.776 675.686 256.77 675.686 256.764C675.686 256.758 675.686 256.752 675.686 256.746C675.686 256.74 675.686 256.734 675.686 256.728C675.686 256.722 675.686 256.716 675.686 256.71C675.686 256.704 675.686 256.698 675.686 256.692C675.686 256.686 675.686 256.68 675.686 256.674C675.686 256.668 675.686 256.662 675.686 256.656C675.686 256.65 675.686 256.644 675.686 256.638C675.686 256.632 675.686 256.626 675.686 256.62C675.686 256.614 675.686 256.608 675.686 256.602C675.686 256.596 675.686 256.59 675.686 256.584C675.686 256.578 675.686 256.572 675.686 256.566C675.686 256.56 675.686 256.554 675.686 256.548C675.686 256.542 675.686 256.536 675.686 256.53C675.686 256.524 675.686 256.518 675.686 256.512C675.686 256.506 675.686 256.5 675.686 256.495C675.686 256.489 675.686 256.483 675.686 256.477C675.686 256.471 675.686 256.465 675.686 256.459C675.686 256.453 675.686 256.447 675.686 256.441C675.686 256.435 675.686 256.429 675.686 256.423C675.686 256.417 675.686 256.411 675.686 256.406C675.686 256.4 675.686 256.394 675.686 256.388C675.686 256.382 675.686 256.376 675.686 256.37C675.686 256.364 675.686 256.358 675.686 256.352C675.686 256.346 675.686 256.341 675.686 256.335C675.686 256.329 675.686 256.323 675.686 256.317C675.686 256.311 675.686 256.305 675.686 256.299C675.686 256.293 675.686 256.288 675.686 256.282C675.686 256.276 675.686 256.27 675.686 256.264C675.686 256.258 675.686 256.252 675.686 256.246C675.686 256.241 675.686 256.235 675.686 256.229C675.686 256.223 675.686 256.217 675.686 256.211C675.686 256.205 675.686 256.2 675.686 256.194C675.686 256.188 675.686 256.182 675.686 256.176C675.686 256.17 675.686 256.164 675.686 256.159C675.686 256.153 675.686 256.147 675.686 256.141C675.686 256.135 675.686 256.129 675.686 256.124C675.686 256.118 675.686 256.112 675.686 256.106C675.686 256.1 675.686 256.094 675.686 256.089C675.686 256.083 675.686 256.077 675.686 256.071C675.686 256.065 675.686 256.059 675.686 256.054C675.686 256.048 675.686 256.042 675.686 256.036C675.686 256.03 675.686 256.025 675.686 256.019C675.686 256.013 675.686 256.007 675.686 256.001C675.686 255.996 675.686 255.99 675.686 255.984C675.686 255.978 675.686 255.972 675.686 255.967C675.686 255.961 675.686 255.955 675.686 255.949C675.686 255.944 675.686 255.938 675.686 255.932C675.686 255.926 675.686 255.92 675.686 255.915C675.686 255.909 675.686 255.903 675.686 255.897C675.686 255.892 675.686 255.886 675.686 255.88C675.686 255.874 675.686 255.869 675.686 255.863C675.686 255.857 675.686 255.851 675.686 255.846C675.686 255.84 675.686 255.834 675.686 255.828C675.686 255.823 675.686 255.817 675.686 255.811C675.686 255.805 675.686 255.8 675.686 255.794C675.686 255.788 675.686 255.782 675.686 255.777C675.686 255.771 675.686 255.765 675.686 255.759C675.686 255.754 675.686 255.748 675.686 255.742C675.686 255.737 675.686 255.731 675.686 255.725C675.686 255.719 675.686 255.714 675.686 255.708C675.686 255.702 675.686 255.697 675.686 255.691C675.686 255.685 675.686 255.679 675.686 255.674C675.686 255.668 675.686 255.662 675.686 255.657C675.686 255.651 675.686 255.645 675.686 255.64C675.686 255.634 675.686 255.628 675.686 255.623C675.686 255.617 675.686 255.611 675.686 255.606C675.686 255.6 675.686 255.594 675.686 255.589C675.686 255.583 675.686 255.577 675.686 255.571C675.686 255.566 675.686 255.56 675.686 255.555C675.686 255.549 675.686 255.543 675.686 255.538C675.686 255.532 675.686 255.526 675.686 255.521C675.686 255.515 675.686 255.509 675.686 255.504C675.686 255.498 675.686 255.492 675.686 255.487C675.686 255.481 675.686 255.475 675.686 255.47C675.686 255.464 675.686 255.459 675.686 255.453C675.686 255.447 675.686 255.442 675.686 255.436C675.686 255.43 675.686 255.425 675.686 255.419C675.686 255.414 675.686 255.408 675.686 255.402C675.686 255.397 675.686 255.391 675.686 255.385C675.686 255.38 675.686 255.374 675.686 255.369C675.686 255.363 675.686 255.357 675.686 255.352C675.686 255.346 675.686 255.341 675.686 255.335C675.686 255.329 675.686 255.324 675.686 255.318C675.686 255.313 675.686 255.307 675.686 255.301C675.686 255.296 675.686 255.29 675.686 255.285C675.686 255.279 675.686 255.274 675.686 255.268C675.686 255.262 675.686 255.257 675.686 255.251C675.686 255.246 675.686 255.24 675.686 255.235C675.686 255.229 675.686 255.223 675.686 255.218C675.686 255.212 675.686 255.207 675.686 255.201C675.686 255.196 675.686 255.19 675.686 255.185C675.686 255.179 675.686 255.174 675.686 255.168C675.686 255.162 675.686 255.157 675.686 255.151C675.686 255.146 675.686 255.14 675.686 255.135H645.686C645.686 255.14 645.686 255.146 645.686 255.151C645.686 255.157 645.686 255.162 645.686 255.168C645.686 255.174 645.686 255.179 645.686 255.185C645.686 255.19 645.686 255.196 645.686 255.201C645.686 255.207 645.686 255.212 645.686 255.218C645.686 255.223 645.686 255.229 645.686 255.235C645.686 255.24 645.686 255.246 645.686 255.251C645.686 255.257 645.686 255.262 645.686 255.268C645.686 255.274 645.686 255.279 645.686 255.285C645.686 255.29 645.686 255.296 645.686 255.301C645.686 255.307 645.686 255.313 645.686 255.318C645.686 255.324 645.686 255.329 645.686 255.335C645.686 255.341 645.686 255.346 645.686 255.352C645.686 255.357 645.686 255.363 645.686 255.369C645.686 255.374 645.686 255.38 645.686 255.385C645.686 255.391 645.686 255.397 645.686 255.402C645.686 255.408 645.686 255.414 645.686 255.419C645.686 255.425 645.686 255.43 645.686 255.436C645.686 255.442 645.686 255.447 645.686 255.453C645.686 255.459 645.686 255.464 645.686 255.47C645.686 255.475 645.686 255.481 645.686 255.487C645.686 255.492 645.686 255.498 645.686 255.504C645.686 255.509 645.686 255.515 645.686 255.521C645.686 255.526 645.686 255.532 645.686 255.538C645.686 255.543 645.686 255.549 645.686 255.555C645.686 255.56 645.686 255.566 645.686 255.571C645.686 255.577 645.686 255.583 645.686 255.589C645.686 255.594 645.686 255.6 645.686 255.606C645.686 255.611 645.686 255.617 645.686 255.623C645.686 255.628 645.686 255.634 645.686 255.64C645.686 255.645 645.686 255.651 645.686 255.657C645.686 255.662 645.686 255.668 645.686 255.674C645.686 255.679 645.686 255.685 645.686 255.691C645.686 255.697 645.686 255.702 645.686 255.708C645.686 255.714 645.686 255.719 645.686 255.725C645.686 255.731 645.686 255.737 645.686 255.742C645.686 255.748 645.686 255.754 645.686 255.759C645.686 255.765 645.686 255.771 645.686 255.777C645.686 255.782 645.686 255.788 645.686 255.794C645.686 255.8 645.686 255.805 645.686 255.811C645.686 255.817 645.686 255.823 645.686 255.828C645.686 255.834 645.686 255.84 645.686 255.846C645.686 255.851 645.686 255.857 645.686 255.863C645.686 255.869 645.686 255.874 645.686 255.88C645.686 255.886 645.686 255.892 645.686 255.897C645.686 255.903 645.686 255.909 645.686 255.915C645.686 255.92 645.686 255.926 645.686 255.932C645.686 255.938 645.686 255.944 645.686 255.949C645.686 255.955 645.686 255.961 645.686 255.967C645.686 255.972 645.686 255.978 645.686 255.984C645.686 255.99 645.686 255.996 645.686 256.001C645.686 256.007 645.686 256.013 645.686 256.019C645.686 256.025 645.686 256.03 645.686 256.036C645.686 256.042 645.686 256.048 645.686 256.054C645.686 256.059 645.686 256.065 645.686 256.071C645.686 256.077 645.686 256.083 645.686 256.089C645.686 256.094 645.686 256.1 645.686 256.106C645.686 256.112 645.686 256.118 645.686 256.124C645.686 256.129 645.686 256.135 645.686 256.141C645.686 256.147 645.686 256.153 645.686 256.159C645.686 256.164 645.686 256.17 645.686 256.176C645.686 256.182 645.686 256.188 645.686 256.194C645.686 256.2 645.686 256.205 645.686 256.211C645.686 256.217 645.686 256.223 645.686 256.229C645.686 256.235 645.686 256.241 645.686 256.246C645.686 256.252 645.686 256.258 645.686 256.264C645.686 256.27 645.686 256.276 645.686 256.282C645.686 256.288 645.686 256.293 645.686 256.299C645.686 256.305 645.686 256.311 645.686 256.317C645.686 256.323 645.686 256.329 645.686 256.335C645.686 256.341 645.686 256.346 645.686 256.352C645.686 256.358 645.686 256.364 645.686 256.37C645.686 256.376 645.686 256.382 645.686 256.388C645.686 256.394 645.686 256.4 645.686 256.406C645.686 256.411 645.686 256.417 645.686 256.423C645.686 256.429 645.686 256.435 645.686 256.441C645.686 256.447 645.686 256.453 645.686 256.459C645.686 256.465 645.686 256.471 645.686 256.477C645.686 256.483 645.686 256.489 645.686 256.495C645.686 256.5 645.686 256.506 645.686 256.512C645.686 256.518 645.686 256.524 645.686 256.53C645.686 256.536 645.686 256.542 645.686 256.548C645.686 256.554 645.686 256.56 645.686 256.566C645.686 256.572 645.686 256.578 645.686 256.584C645.686 256.59 645.686 256.596 645.686 256.602C645.686 256.608 645.686 256.614 645.686 256.62C645.686 256.626 645.686 256.632 645.686 256.638C645.686 256.644 645.686 256.65 645.686 256.656C645.686 256.662 645.686 256.668 645.686 256.674C645.686 256.68 645.686 256.686 645.686 256.692C645.686 256.698 645.686 256.704 645.686 256.71C645.686 256.716 645.686 256.722 645.686 256.728C645.686 256.734 645.686 256.74 645.686 256.746C645.686 256.752 645.686 256.758 645.686 256.764C645.686 256.77 645.686 256.776 645.686 256.782C645.686 256.788 645.686 256.794 645.686 256.8C645.686 256.806 645.686 256.812 645.686 256.818C645.686 256.824 645.686 256.83 645.686 256.836C645.686 256.842 645.686 256.848 645.686 256.854C645.686 256.86 645.686 256.866 645.686 256.872C645.686 256.878 645.686 256.884 645.686 256.891C645.686 256.897 645.686 256.903 645.686 256.909C645.686 256.915 645.686 256.921 645.686 256.927C645.686 256.933 645.686 256.939 645.686 256.945C645.686 256.951 645.686 256.957 645.686 256.963C645.686 256.969 645.686 256.976 645.686 256.982C645.686 256.988 645.686 256.994 645.686 257C645.686 257.006 645.686 257.012 645.686 257.018C645.686 257.024 645.686 257.03 645.686 257.036C645.686 257.043 645.686 257.049 645.686 257.055C645.686 257.061 645.686 257.067 645.686 257.073C645.686 257.079 645.686 257.085 645.686 257.091C645.686 257.098 645.686 257.104 645.686 257.11C645.686 257.116 645.686 257.122 645.686 257.128C645.686 257.134 645.686 257.14 645.686 257.147C645.686 257.153 645.686 257.159 645.686 257.165C645.686 257.171 645.686 257.177 645.686 257.183C645.686 257.189 645.686 257.196 645.686 257.202C645.686 257.208 645.686 257.214 645.686 257.22C645.686 257.226 645.686 257.233 645.686 257.239C645.686 257.245 645.686 257.251 645.686 257.257C645.686 257.263 645.686 257.269 645.686 257.276C645.686 257.282 645.686 257.288 645.686 257.294C645.686 257.3 645.686 257.307 645.686 257.313C645.686 257.319 645.686 257.325 645.686 257.331C645.686 257.337 645.686 257.344 645.686 257.35C645.686 257.356 645.686 257.362 645.686 257.368C645.686 257.375 645.686 257.381 645.686 257.387C645.686 257.393 645.686 257.399 645.686 257.406C645.686 257.412 645.686 257.418 645.686 257.424C645.686 257.43 645.686 257.437 645.686 257.443C645.686 257.449 645.686 257.455 645.686 257.461C645.686 257.468 645.686 257.474 645.686 257.48C645.686 257.486 645.686 257.493 645.686 257.499C645.686 257.505 645.686 257.511 645.686 257.518C645.686 257.524 645.686 257.53 645.686 257.536C645.686 257.542 645.686 257.549 645.686 257.555C645.686 257.561 645.686 257.567 645.686 257.574C645.686 257.58 645.686 257.586 645.686 257.592C645.686 257.599 645.686 257.605 645.686 257.611C645.686 257.618 645.686 257.624 645.686 257.63C645.686 257.636 645.686 257.643 645.686 257.649C645.686 257.655 645.686 257.661 645.686 257.668C645.686 257.674 645.686 257.68 645.686 257.687C645.686 257.693 645.686 257.699 645.686 257.705C645.686 257.712 645.686 257.718 645.686 257.724C645.686 257.731 645.686 257.737 645.686 257.743C645.686 257.749 645.686 257.756 645.686 257.762C645.686 257.768 645.686 257.775 645.686 257.781C645.686 257.787 645.686 257.794 645.686 257.8C645.686 257.806 645.686 257.813 645.686 257.819C645.686 257.825 645.686 257.831 645.686 257.838C645.686 257.844 645.686 257.85 645.686 257.857C645.686 257.863 645.686 257.869 645.686 257.876C645.686 257.882 645.686 257.888 645.686 257.895C645.686 257.901 645.686 257.907 645.686 257.914C645.686 257.92 645.686 257.926 645.686 257.933C645.686 257.939 645.686 257.946 645.686 257.952C645.686 257.958 645.686 257.965 645.686 257.971C645.686 257.977 645.686 257.984 645.686 257.99C645.686 257.996 645.686 258.003 645.686 258.009C645.686 258.016 645.686 258.022 645.686 258.028C645.686 258.035 645.686 258.041 645.686 258.047C645.686 258.054 645.686 258.06 645.686 258.067C645.686 258.073 645.686 258.079 645.686 258.086C645.686 258.092 645.686 258.099 645.686 258.105C645.686 258.111 645.686 258.118 645.686 258.124C645.686 258.131 645.686 258.137 645.686 258.143C645.686 258.15 645.686 258.156 645.686 258.163C645.686 258.169 645.686 258.175 645.686 258.182C645.686 258.188 645.686 258.195 645.686 258.201C645.686 258.208 645.686 258.214 645.686 258.22C645.686 258.227 645.686 258.233 645.686 258.24C645.686 258.246 645.686 258.253 645.686 258.259C645.686 258.265 645.686 258.272 645.686 258.278C645.686 258.285 645.686 258.291 645.686 258.298C645.686 258.304 645.686 258.311 645.686 258.317C645.686 258.323 645.686 258.33 645.686 258.336C645.686 258.343 645.686 258.349 645.686 258.356C645.686 258.362 645.686 258.369 645.686 258.375C645.686 258.382 645.686 258.388 645.686 258.395C645.686 258.401 645.686 258.408 645.686 258.414C645.686 258.42 645.686 258.427 645.686 258.433C645.686 258.44 645.686 258.446 645.686 258.453C645.686 258.459 645.686 258.466 645.686 258.472C645.686 258.479 645.686 258.485 645.686 258.492C645.686 258.498 645.686 258.505 645.686 258.511C645.686 258.518 645.686 258.524 645.686 258.531C645.686 258.537 645.686 258.544 645.686 258.55C645.686 258.557 645.686 258.564 645.686 258.57C645.686 258.577 645.686 258.583 645.686 258.59C645.686 258.596 645.686 258.603 645.686 258.609C645.686 258.616 645.686 258.622 645.686 258.629C645.686 258.635 645.686 258.642 645.686 258.648C645.686 258.655 645.686 258.662 645.686 258.668C645.686 258.675 645.686 258.681 645.686 258.688C645.686 258.694 645.686 258.701 645.686 258.707C645.686 258.714 645.686 258.72 645.686 258.727C645.686 258.734 645.686 258.74 645.686 258.747C645.686 258.753 645.686 258.76 645.686 258.766C645.686 258.773 645.686 258.78 645.686 258.786C645.686 258.793 645.686 258.799 645.686 258.806C645.686 258.813 645.686 258.819 645.686 258.826C645.686 258.832 645.686 258.839 645.686 258.845C645.686 258.852 645.686 258.859 645.686 258.865C645.686 258.872 645.686 258.878 645.686 258.885C645.686 258.892 645.686 258.898 645.686 258.905C645.686 258.912 645.686 258.918 645.686 258.925C645.686 258.931 645.686 258.938 645.686 258.945C645.686 258.951 645.686 258.958 645.686 258.964C645.686 258.971 645.686 258.978 645.686 258.984C645.686 258.991 645.686 258.998 645.686 259.004C645.686 259.011 645.686 259.018 645.686 259.024C645.686 259.031 645.686 259.037 645.686 259.044C645.686 259.051 645.686 259.057 645.686 259.064C645.686 259.071 645.686 259.077 645.686 259.084C645.686 259.091 645.686 259.097 645.686 259.104C645.686 259.111 645.686 259.117 645.686 259.124C645.686 259.131 645.686 259.137 645.686 259.144C645.686 259.151 645.686 259.157 645.686 259.164C645.686 259.171 645.686 259.177 645.686 259.184C645.686 259.191 645.686 259.197 645.686 259.204C645.686 259.211 645.686 259.218 645.686 259.224C645.686 259.231 645.686 259.238 645.686 259.244C645.686 259.251 645.686 259.258 645.686 259.264C645.686 259.271 645.686 259.278 645.686 259.285C645.686 259.291 645.686 259.298 645.686 259.305C645.686 259.311 645.686 259.318 645.686 259.325C645.686 259.332 645.686 259.338 645.686 259.345C645.686 259.352 645.686 259.358 645.686 259.365C645.686 259.372 645.686 259.379 645.686 259.385C645.686 259.392 645.686 259.399 645.686 259.406C645.686 259.412 645.686 259.419 645.686 259.426C645.686 259.433 645.686 259.439 645.686 259.446C645.686 259.453 645.686 259.46 645.686 259.466C645.686 259.473 645.686 259.48 645.686 259.487C645.686 259.493 645.686 259.5 645.686 259.507C645.686 259.514 645.686 259.52 645.686 259.527C645.686 259.534 645.686 259.541 645.686 259.548C645.686 259.554 645.686 259.561 645.686 259.568C645.686 259.575 645.686 259.581 645.686 259.588C645.686 259.595 645.686 259.602 645.686 259.609C645.686 259.615 645.686 259.622 645.686 259.629C645.686 259.636 645.686 259.643 645.686 259.649C645.686 259.656 645.686 259.663 645.686 259.67C645.686 259.677 645.686 259.683 645.686 259.69C645.686 259.697 645.686 259.704 645.686 259.711C645.686 259.718 645.686 259.724 645.686 259.731C645.686 259.738 645.686 259.745 645.686 259.752C645.686 259.759 645.686 259.765 645.686 259.772C645.686 259.779 645.686 259.786 645.686 259.793C645.686 259.8 645.686 259.806 645.686 259.813C645.686 259.82 645.686 259.827 645.686 259.834C645.686 259.841 645.686 259.847 645.686 259.854C645.686 259.861 645.686 259.868 645.686 259.875C645.686 259.882 645.686 259.889 645.686 259.896C645.686 259.902 645.686 259.909 645.686 259.916C645.686 259.923 645.686 259.93 645.686 259.937C645.686 259.944 645.686 259.95 645.686 259.957C645.686 259.964 645.686 259.971 645.686 259.978C645.686 259.985 645.686 259.992 645.686 259.999C645.686 260.006 645.686 260.012 645.686 260.019C645.686 260.026 645.686 260.033 645.686 260.04C645.686 260.047 645.686 260.054 645.686 260.061C645.686 260.068 645.686 260.075 645.686 260.082C645.686 260.088 645.686 260.095 645.686 260.102C645.686 260.109 645.686 260.116 645.686 260.123C645.686 260.13 645.686 260.137 645.686 260.144C645.686 260.151 645.686 260.158 645.686 260.165C645.686 260.172 645.686 260.178 645.686 260.185C645.686 260.192 645.686 260.199 645.686 260.206C645.686 260.213 645.686 260.22 645.686 260.227C645.686 260.234 645.686 260.241 645.686 260.248C645.686 260.255 645.686 260.262 645.686 260.269C645.686 260.276 645.686 260.283 645.686 260.29C645.686 260.297 645.686 260.304 645.686 260.311C645.686 260.318 645.686 260.325 645.686 260.332C645.686 260.339 645.686 260.345 645.686 260.352C645.686 260.359 645.686 260.366 645.686 260.373C645.686 260.38 645.686 260.387 645.686 260.394C645.686 260.401 645.686 260.408 645.686 260.415C645.686 260.422 645.686 260.429 645.686 260.436C645.686 260.443 645.686 260.45 645.686 260.457C645.686 260.464 645.686 260.471 645.686 260.478C645.686 260.485 645.686 260.492 645.686 260.499C645.686 260.506 645.686 260.514 645.686 260.521C645.686 260.528 645.686 260.535 645.686 260.542C645.686 260.549 645.686 260.556 645.686 260.563C645.686 260.57 645.686 260.577 645.686 260.584C645.686 260.591 645.686 260.598 645.686 260.605C645.686 260.612 645.686 260.619 645.686 260.626C645.686 260.633 645.686 260.64 645.686 260.647C645.686 260.654 645.686 260.661 645.686 260.668C645.686 260.675 645.686 260.683 645.686 260.69C645.686 260.697 645.686 260.704 645.686 260.711C645.686 260.718 645.686 260.725 645.686 260.732C645.686 260.739 645.686 260.746 645.686 260.753C645.686 260.76 645.686 260.767 645.686 260.774C645.686 260.782 645.686 260.789 645.686 260.796C645.686 260.803 645.686 260.81 645.686 260.817C645.686 260.824 645.686 260.831 645.686 260.838C645.686 260.845 645.686 260.853 645.686 260.86C645.686 260.867 645.686 260.874 645.686 260.881C645.686 260.888 645.686 260.895 645.686 260.902C645.686 260.909 645.686 260.917 645.686 260.924C645.686 260.931 645.686 260.938 645.686 260.945C645.686 260.952 645.686 260.959 645.686 260.966C645.686 260.974 645.686 260.981 645.686 260.988C645.686 260.995 645.686 261.002 645.686 261.009C645.686 261.016 645.686 261.024 645.686 261.031C645.686 261.038 645.686 261.045 645.686 261.052C645.686 261.059 645.686 261.066 645.686 261.074C645.686 261.081 645.686 261.088 645.686 261.095C645.686 261.102 645.686 261.109 645.686 261.117C645.686 261.124 645.686 261.131 645.686 261.138C645.686 261.145 645.686 261.152 645.686 261.16C645.686 261.167 645.686 261.174 645.686 261.181C645.686 261.188 645.686 261.196 645.686 261.203C645.686 261.21 645.686 261.217 645.686 261.224C645.686 261.232 645.686 261.239 645.686 261.246C645.686 261.253 645.686 261.26 645.686 261.268C645.686 261.275 645.686 261.282 645.686 261.289C645.686 261.296 645.686 261.304 645.686 261.311C645.686 261.318 645.686 261.325 645.686 261.332C645.686 261.34 645.686 261.347 645.686 261.354C645.686 261.361 645.686 261.369 645.686 261.376C645.686 261.383 645.686 261.39 645.686 261.397C645.686 261.405 645.686 261.412 645.686 261.419C645.686 261.426 645.686 261.434 645.686 261.441C645.686 261.448 645.686 261.455 645.686 261.463C645.686 261.47 645.686 261.477 645.686 261.484C645.686 261.492 645.686 261.499 645.686 261.506C645.686 261.514 645.686 261.521 645.686 261.528C645.686 261.535 645.686 261.543 645.686 261.55C645.686 261.557 645.686 261.564 645.686 261.572C645.686 261.579 645.686 261.586 645.686 261.594C645.686 261.601 645.686 261.608 645.686 261.615C645.686 261.623 645.686 261.63 645.686 261.637C645.686 261.645 645.686 261.652 645.686 261.659C645.686 261.666 645.686 261.674 645.686 261.681C645.686 261.688 645.686 261.696 645.686 261.703C645.686 261.71 645.686 261.718 645.686 261.725C645.686 261.732 645.686 261.74 645.686 261.747C645.686 261.754 645.686 261.762 645.686 261.769C645.686 261.776 645.686 261.783 645.686 261.791C645.686 261.798 645.686 261.805 645.686 261.813C645.686 261.82 645.686 261.827 645.686 261.835C645.686 261.842 645.686 261.85 645.686 261.857C645.686 261.864 645.686 261.872 645.686 261.879C645.686 261.886 645.686 261.894 645.686 261.901C645.686 261.908 645.686 261.916 645.686 261.923C645.686 261.93 645.686 261.938 645.686 261.945C645.686 261.953 645.686 261.96 645.686 261.967C645.686 261.975 645.686 261.982 645.686 261.989C645.686 261.997 645.686 262.004 645.686 262.012C645.686 262.019 645.686 262.026 645.686 262.034C645.686 262.041 645.686 262.048 645.686 262.056C645.686 262.063 645.686 262.071 645.686 262.078C645.686 262.085 645.686 262.093 645.686 262.1C645.686 262.108 645.686 262.115 645.686 262.122C645.686 262.13 645.686 262.137 645.686 262.145C645.686 262.152 645.686 262.16 645.686 262.167C645.686 262.174 645.686 262.182 645.686 262.189C645.686 262.197 645.686 262.204 645.686 262.211C645.686 262.219 645.686 262.226 645.686 262.234C645.686 262.241 645.686 262.249 645.686 262.256C645.686 262.264 645.686 262.271 645.686 262.278C645.686 262.286 645.686 262.293 645.686 262.301C645.686 262.308 645.686 262.316 645.686 262.323C645.686 262.331 645.686 262.338 645.686 262.346C645.686 262.353 645.686 262.36 645.686 262.368C645.686 262.375 645.686 262.383 645.686 262.39C645.686 262.398 645.686 262.405 645.686 262.413C645.686 262.42 645.686 262.428 645.686 262.435C645.686 262.443 645.686 262.45 645.686 262.458C645.686 262.465 645.686 262.473 645.686 262.48C645.686 262.488 645.686 262.495 645.686 262.503C645.686 262.51 645.686 262.518 645.686 262.525C645.686 262.533 645.686 262.54 645.686 262.548C645.686 262.555 645.686 262.563 645.686 262.57C645.686 262.578 645.686 262.585 645.686 262.593C645.686 262.6 645.686 262.608 645.686 262.615C645.686 262.623 645.686 262.63 645.686 262.638C645.686 262.645 645.686 262.653 645.686 262.66C645.686 262.668 645.686 262.675 645.686 262.683C645.686 262.691 645.686 262.698 645.686 262.706C645.686 262.713 645.686 262.721 645.686 262.728C645.686 262.736 645.686 262.743 645.686 262.751C645.686 262.758 645.686 262.766 645.686 262.774C645.686 262.781 645.686 262.789 645.686 262.796C645.686 262.804 645.686 262.811 645.686 262.819C645.686 262.827 645.686 262.834 645.686 262.842C645.686 262.849 645.686 262.857 645.686 262.864C645.686 262.872 645.686 262.88 645.686 262.887C645.686 262.895 645.686 262.902 645.686 262.91C645.686 262.918 645.686 262.925 645.686 262.933C645.686 262.94 645.686 262.948 645.686 262.956C645.686 262.963 645.686 262.971 645.686 262.978C645.686 262.986 645.686 262.994 645.686 263.001C645.686 263.009 645.686 263.016 645.686 263.024C645.686 263.032 645.686 263.039 645.686 263.047C645.686 263.055 645.686 263.062 645.686 263.07C645.686 263.077 645.686 263.085 645.686 263.093C645.686 263.1 645.686 263.108 645.686 263.116C645.686 263.123 645.686 263.131 645.686 263.138C645.686 263.146 645.686 263.154 645.686 263.161C645.686 263.169 645.686 263.177 645.686 263.184C645.686 263.192 645.686 263.2 645.686 263.207C645.686 263.215 645.686 263.223 645.686 263.23C645.686 263.238 645.686 263.246 645.686 263.253C645.686 263.261 645.686 263.269 645.686 263.276C645.686 263.284 645.686 263.292 645.686 263.299C645.686 263.307 645.686 263.315 645.686 263.322C645.686 263.33 645.686 263.338 645.686 263.346C645.686 263.353 645.686 263.361 645.686 263.369C645.686 263.376 645.686 263.384 645.686 263.392C645.686 263.399 645.686 263.407 645.686 263.415C645.686 263.422 645.686 263.43 645.686 263.438C645.686 263.446 645.686 263.453 645.686 263.461C645.686 263.469 645.686 263.476 645.686 263.484C645.686 263.492 645.686 263.5 645.686 263.507C645.686 263.515 645.686 263.523 645.686 263.531C645.686 263.538 645.686 263.546 645.686 263.554C645.686 263.562 645.686 263.569 645.686 263.577C645.686 263.585 645.686 263.592 645.686 263.6C645.686 263.608 645.686 263.616 645.686 263.623C645.686 263.631 645.686 263.639 645.686 263.647C645.686 263.655 645.686 263.662 645.686 263.67C645.686 263.678 645.686 263.686 645.686 263.693C645.686 263.701 645.686 263.709 645.686 263.717C645.686 263.724 645.686 263.732 645.686 263.74C645.686 263.748 645.686 263.756 645.686 263.763C645.686 263.771 645.686 263.779 645.686 263.787C645.686 263.794 645.686 263.802 645.686 263.81C645.686 263.818 645.686 263.826 645.686 263.833C645.686 263.841 645.686 263.849 645.686 263.857C645.686 263.865 645.686 263.872 645.686 263.88C645.686 263.888 645.686 263.896 645.686 263.904C645.686 263.912 645.686 263.919 645.686 263.927C645.686 263.935 645.686 263.943 645.686 263.951C645.686 263.958 645.686 263.966 645.686 263.974C645.686 263.982 645.686 263.99 645.686 263.998C645.686 264.005 645.686 264.013 645.686 264.021C645.686 264.029 645.686 264.037 645.686 264.045C645.686 264.053 645.686 264.06 645.686 264.068C645.686 264.076 645.686 264.084 645.686 264.092C645.686 264.1 645.686 264.108 645.686 264.115C645.686 264.123 645.686 264.131 645.686 264.139C645.686 264.147 645.686 264.155 645.686 264.163C645.686 264.17 645.686 264.178 645.686 264.186C645.686 264.194 645.686 264.202 645.686 264.21C645.686 264.218 645.686 264.226 645.686 264.234C645.686 264.241 645.686 264.249 645.686 264.257C645.686 264.265 645.686 264.273 645.686 264.281C645.686 264.289 645.686 264.297 645.686 264.305C645.686 264.312 645.686 264.32 645.686 264.328C645.686 264.336 645.686 264.344 645.686 264.352C645.686 264.36 645.686 264.368 645.686 264.376C645.686 264.384 645.686 264.392 645.686 264.4C645.686 264.407 645.686 264.415 645.686 264.423C645.686 264.431 645.686 264.439 645.686 264.447C645.686 264.455 645.686 264.463 645.686 264.471C645.686 264.479 645.686 264.487 645.686 264.495C645.686 264.503 645.686 264.511 645.686 264.519C645.686 264.527 645.686 264.535 645.686 264.542C645.686 264.55 645.686 264.558 645.686 264.566C645.686 264.574 645.686 264.582 645.686 264.59C645.686 264.598 645.686 264.606 645.686 264.614C645.686 264.622 645.686 264.63 645.686 264.638C645.686 264.646 645.686 264.654 645.686 264.662C645.686 264.67 645.686 264.678 645.686 264.686C645.686 264.694 645.686 264.702 645.686 264.71C645.686 264.718 645.686 264.726 645.686 264.734C645.686 264.742 645.686 264.75 645.686 264.758C645.686 264.766 645.686 264.774 645.686 264.782C645.686 264.79 645.686 264.798 645.686 264.806C645.686 264.814 645.686 264.822 645.686 264.83C645.686 264.838 645.686 264.846 645.686 264.854C645.686 264.862 645.686 264.87 645.686 264.878C645.686 264.886 645.686 264.894 645.686 264.902C645.686 264.91 645.686 264.918 645.686 264.926C645.686 264.934 645.686 264.942 645.686 264.951C645.686 264.959 645.686 264.967 645.686 264.975C645.686 264.983 645.686 264.991 645.686 264.999C645.686 265.007 645.686 265.015 645.686 265.023C645.686 265.031 645.686 265.039 645.686 265.047C645.686 265.055 645.686 265.063 645.686 265.071C645.686 265.079 645.686 265.088 645.686 265.096C645.686 265.104 645.686 265.112 645.686 265.12C645.686 265.128 645.686 265.136 645.686 265.144C645.686 265.152 645.686 265.16 645.686 265.168C645.686 265.176 645.686 265.185 645.686 265.193C645.686 265.201 645.686 265.209 645.686 265.217C645.686 265.225 645.686 265.233 645.686 265.241C645.686 265.249 645.686 265.258 645.686 265.266C645.686 265.274 645.686 265.282 645.686 265.29C645.686 265.298 645.686 265.306 645.686 265.314C645.686 265.322 645.686 265.331 645.686 265.339C645.686 265.347 645.686 265.355 645.686 265.363C645.686 265.371 645.686 265.379 645.686 265.388C645.686 265.396 645.686 265.404 645.686 265.412C645.686 265.42 645.686 265.428 645.686 265.436C645.686 265.445 645.686 265.453 645.686 265.461C645.686 265.469 645.686 265.477 645.686 265.485C645.686 265.493 645.686 265.502 645.686 265.51C645.686 265.518 645.686 265.526 645.686 265.534C645.686 265.542 645.686 265.551 645.686 265.559C645.686 265.567 645.686 265.575 645.686 265.583C645.686 265.592 645.686 265.6 645.686 265.608C645.686 265.616 645.686 265.624 645.686 265.632C645.686 265.641 645.686 265.649 645.686 265.657C645.686 265.665 645.686 265.673 645.686 265.682H675.686ZM649.251 264.843L655.843 272.607L678.712 253.19L672.12 245.426L649.251 264.843ZM667.277 247.898C660.862 247.898 656.889 251.647 655.309 253.518C653.681 255.448 652.811 257.392 652.392 258.425C651.499 260.622 650.976 262.976 650.63 264.822L680.116 270.35C680.356 269.071 680.444 269.081 680.186 269.716C680.083 269.968 679.537 271.325 678.238 272.864C676.988 274.346 673.351 277.898 667.277 277.898V247.898ZM650.542 265.339C649.95 269.249 649.641 273.127 649.641 276.961H679.641C679.641 274.741 679.82 272.368 680.204 269.833L650.542 265.339Z" fill="#0D0111" mask="url(#path-1-outside-1_1694_359)"/>
</g>
<defs>
<filter id="filter0_d_1694_359" x="87.3008" y="62.3613" width="779.973" height="305.656" filterUnits="userSpaceOnUse" color-interpolation-filters="sRGB">
<feFlood flood-opacity="0" result="BackgroundImageFix"/>
<feColorMatrix in="SourceAlpha" type="matrix" values="0 0 0 0 0 0 0 0 0 0 0 0 0 0 0 0 0 0 127 0" result="hardAlpha"/>
<feOffset dy="4"/>
<feGaussianBlur stdDeviation="2"/>
<feComposite in2="hardAlpha" operator="out"/>
<feColorMatrix type="matrix" values="0 0 0 0 0 0 0 0 0 0 0 0 0 0 0 0 0 0 0.25 0"/>
<feBlend mode="normal" in2="BackgroundImageFix" result="effect1_dropShadow_1694_359"/>
<feBlend mode="normal" in="SourceGraphic" in2="effect1_dropShadow_1694_359" result="shape"/>
</filter>
</defs>
</svg>
